<?xml version="1.0" encoding="UTF-8" standalone="no"?>
<!DOCTYPE svg PUBLIC "-//W3C//DTD SVG 1.1//EN"
 "http://www.w3.org/Graphics/SVG/1.1/DTD/svg11.dtd">
<!-- Generated by graphviz version 2.43.0 (0)
 -->
<!-- Title: stmap Pages: 1 -->
<svg width="2467pt" height="392pt"
 viewBox="0.00 0.00 2466.93 392.00" xmlns="http://www.w3.org/2000/svg" xmlns:xlink="http://www.w3.org/1999/xlink">
<g id="graph0" class="graph" transform="scale(1 1) rotate(0) translate(4 388)">
<title>stmap</title>
<polygon fill="white" stroke="transparent" points="-4,4 -4,-388 2462.93,-388 2462.93,4 -4,4"/>
<g id="node1" class="node">
<title></title>
<ellipse fill="none" stroke="black" cx="1465.79" cy="-366" rx="27" ry="18"/>
</g>
<!-- var_file -->
<g id="node2" class="node">
<title>var_file</title>
<g id="a_node2"><a xlink:title="stboot/include/hostvars.json">
<ellipse fill="none" stroke="black" cx="438.79" cy="-279" rx="72.59" ry="18"/>
<text text-anchor="middle" x="438.79" y="-275.3" font-family="Times,serif" font-size="14.00">hostvars.json</text>
</a>
</g>
</g>
<!-- &#45;&gt;var_file -->
<g id="edge1" class="edge">
<title>&#45;&gt;var_file</title>
<path fill="none" stroke="black" d="M1438.58,-364.44C1325.46,-361.84 881.45,-348.7 520.79,-297 514.22,-296.06 507.38,-294.91 500.58,-293.66"/>
<polygon fill="black" stroke="black" points="501.16,-290.21 490.68,-291.77 499.84,-297.08 501.16,-290.21"/>
<text text-anchor="middle" x="873.29" y="-318.8" font-family="Times,serif" font-size="14.00">create_hostvars.sh</text>
</g>
<!-- network_file -->
<g id="node3" class="node">
<title>network_file</title>
<g id="a_node3"><a xlink:title="stboot/data/network.json">
<ellipse fill="none" stroke="black" cx="1445.79" cy="-279" rx="70.69" ry="18"/>
<text text-anchor="middle" x="1445.79" y="-275.3" font-family="Times,serif" font-size="14.00">network.json</text>
</a>
</g>
</g>
<!-- &#45;&gt;network_file -->
<g id="edge2" class="edge">
<title>&#45;&gt;network_file</title>
<path fill="none" stroke="black" d="M1461.75,-347.8C1459.01,-336.16 1455.33,-320.55 1452.2,-307.24"/>
<polygon fill="black" stroke="black" points="1455.53,-306.11 1449.83,-297.18 1448.72,-307.71 1455.53,-306.11"/>
<text text-anchor="middle" x="1542.79" y="-318.8" font-family="Times,serif" font-size="14.00">create_example_data.sh</text>
</g>
<!-- prov_servers_file -->
<g id="node4" class="node">
<title>prov_servers_file</title>
<g id="a_node4"><a xlink:title="stboot/data/provisioning&#45;servers.json">
<ellipse fill="none" stroke="black" cx="1662.79" cy="-279" rx="128.08" ry="18"/>
<text text-anchor="middle" x="1662.79" y="-275.3" font-family="Times,serif" font-size="14.00">provisioning&#45;servers.json</text>
</a>
</g>
</g>
<!-- &#45;&gt;prov_servers_file -->
<g id="edge3" class="edge">
<title>&#45;&gt;prov_servers_file</title>
<path fill="none" stroke="black" d="M1492.99,-365.73C1528.38,-365.35 1590.68,-359.97 1632.79,-330 1641.03,-324.14 1647.41,-315.24 1652.12,-306.57"/>
<polygon fill="black" stroke="black" points="1655.35,-307.92 1656.59,-297.4 1649.06,-304.85 1655.35,-307.92"/>
<text text-anchor="middle" x="1732.79" y="-318.8" font-family="Times,serif" font-size="14.00">create_example_data.sh</text>
</g>
<!-- https_roots_file -->
<g id="node5" class="node">
<title>https_roots_file</title>
<g id="a_node5"><a xlink:title="stboot/data/https&#45;root&#45;certificates.pem">
<ellipse fill="none" stroke="black" cx="1032.79" cy="-279" rx="134.58" ry="18"/>
<text text-anchor="middle" x="1032.79" y="-275.3" font-family="Times,serif" font-size="14.00">https&#45;root&#45;certificates.pem</text>
</a>
</g>
</g>
<!-- &#45;&gt;https_roots_file -->
<g id="edge4" class="edge">
<title>&#45;&gt;https_roots_file</title>
<path fill="none" stroke="black" d="M1438.85,-364.5C1364.26,-362.78 1156.41,-355.75 1093.79,-330 1079.53,-324.13 1066,-313.75 1055.33,-303.95"/>
<polygon fill="black" stroke="black" points="1057.73,-301.41 1048.1,-297 1052.88,-306.45 1057.73,-301.41"/>
<text text-anchor="middle" x="1179.79" y="-318.8" font-family="Times,serif" font-size="14.00">create_example_data.sh</text>
</g>
<!-- ntp_server_file -->
<g id="node6" class="node">
<title>ntp_server_file</title>
<g id="a_node6"><a xlink:title="stboot/data/ntp&#45;servers.json">
<ellipse fill="none" stroke="black" cx="1270.79" cy="-279" rx="85.59" ry="18"/>
<text text-anchor="middle" x="1270.79" y="-275.3" font-family="Times,serif" font-size="14.00">ntp&#45;servers.json</text>
</a>
</g>
</g>
<!-- &#45;&gt;ntp_server_file -->
<g id="edge5" class="edge">
<title>&#45;&gt;ntp_server_file</title>
<path fill="none" stroke="black" d="M1438.73,-363.74C1392.1,-360.99 1299.53,-352.74 1277.79,-330 1272.09,-324.03 1269.63,-315.68 1268.81,-307.52"/>
<polygon fill="black" stroke="black" points="1272.31,-307.35 1268.52,-297.46 1265.31,-307.56 1272.31,-307.35"/>
<text text-anchor="middle" x="1363.79" y="-318.8" font-family="Times,serif" font-size="14.00">create_example_data.sh</text>
</g>
<!-- root_cert_keys -->
<g id="node7" class="node">
<title>root_cert_keys</title>
<g id="a_node7"><a xlink:title="keys/signing&#45;key&#45;N.{cert,key}">
<ellipse fill="none" stroke="black" cx="1934.79" cy="-279" rx="126.18" ry="18"/>
<text text-anchor="middle" x="1934.79" y="-275.3" font-family="Times,serif" font-size="14.00">signing&#45;key&#45;N.{cert,key}</text>
</a>
</g>
</g>
<!-- &#45;&gt;root_cert_keys -->
<g id="edge6" class="edge">
<title>&#45;&gt;root_cert_keys</title>
<path fill="none" stroke="black" d="M1493.19,-365.28C1553.72,-365.27 1702.99,-361.72 1822.79,-330 1848.08,-323.31 1874.88,-311.53 1895.93,-301.08"/>
<polygon fill="black" stroke="black" points="1897.53,-304.19 1904.87,-296.55 1894.36,-297.95 1897.53,-304.19"/>
<text text-anchor="middle" x="1960.29" y="-318.8" font-family="Times,serif" font-size="14.00">generate&#45;keys&#45;and&#45;certs.sh</text>
</g>
<!-- stconfig_json -->
<g id="node8" class="node">
<title>stconfig_json</title>
<g id="a_node8"><a xlink:title="configs/debian&#45;buster&#45;amd64/stconfig.json">
<ellipse fill="none" stroke="black" cx="2148.79" cy="-279" rx="69.59" ry="18"/>
<text text-anchor="middle" x="2148.79" y="-275.3" font-family="Times,serif" font-size="14.00">stconfig.json</text>
</a>
</g>
</g>
<!-- &#45;&gt;stconfig_json -->
<g id="edge7" class="edge">
<title>&#45;&gt;stconfig_json</title>
<path fill="none" stroke="black" d="M1493.03,-365.03C1594.77,-364.9 1952.27,-362.12 2060.79,-330 2081.27,-323.94 2102.13,-312.37 2118.4,-301.89"/>
<polygon fill="black" stroke="black" points="2120.54,-304.66 2126.93,-296.21 2116.67,-298.83 2120.54,-304.66"/>
<text text-anchor="middle" x="2157.29" y="-318.8" font-family="Times,serif" font-size="14.00">create&#45;stconfig.sh</text>
</g>
<!-- initramfs_linuxboot -->
<g id="node10" class="node">
<title>initramfs_linuxboot</title>
<g id="a_node10"><a xlink:title="stboot/initramfs&#45;linuxboot.cpio">
<ellipse fill="none" stroke="black" cx="380.79" cy="-192" rx="121.58" ry="18"/>
<text text-anchor="middle" x="380.79" y="-188.3" font-family="Times,serif" font-size="14.00">initramfs&#45;linuxboot.cpio</text>
</a>
</g>
</g>
<!-- var_file&#45;&gt;initramfs_linuxboot -->
<g id="edge8" class="edge">
<title>var_file&#45;&gt;initramfs_linuxboot</title>
<path fill="none" stroke="black" d="M456.07,-261.23C464.21,-251.24 470.77,-238.51 463.79,-228 459.9,-222.13 454.81,-217.25 449.07,-213.18"/>
<polygon fill="black" stroke="black" points="450.6,-210.02 440.24,-207.79 446.95,-215.99 450.6,-210.02"/>
<text text-anchor="middle" x="488.29" y="-231.8" font-family="Times,serif" font-size="14.00">u&#45;root</text>
</g>
<!-- Syslinux_Linuxboot_img -->
<g id="node19" class="node">
<title>Syslinux_Linuxboot_img</title>
<g id="a_node19"><a xlink:title="deploy/mixed&#45;firmware/Syslinux_Linuxboot.img">
<ellipse fill="none" stroke="black" cx="903.79" cy="-192" rx="121.58" ry="18"/>
<text text-anchor="middle" x="903.79" y="-188.3" font-family="Times,serif" font-size="14.00">Syslinux_Linuxboot.img</text>
</a>
</g>
</g>
<!-- network_file&#45;&gt;Syslinux_Linuxboot_img -->
<g id="edge17" class="edge">
<title>network_file&#45;&gt;Syslinux_Linuxboot_img</title>
<path fill="none" stroke="black" d="M1407.91,-263.66C1375.86,-252.14 1328.46,-236.52 1285.79,-228 1201.59,-211.18 1105.3,-202.43 1030.47,-197.88"/>
<polygon fill="black" stroke="black" points="1030.24,-194.36 1020.05,-197.26 1029.83,-201.35 1030.24,-194.36"/>
<text text-anchor="middle" x="1402.29" y="-231.8" font-family="Times,serif" font-size="14.00">create_image.sh</text>
</g>
<!-- prov_servers_file&#45;&gt;Syslinux_Linuxboot_img -->
<g id="edge18" class="edge">
<title>prov_servers_file&#45;&gt;Syslinux_Linuxboot_img</title>
<path fill="none" stroke="black" d="M1612.05,-262.42C1572.36,-250.92 1515.59,-235.93 1464.79,-228 1318.67,-205.19 1148.95,-197.12 1034.78,-194.33"/>
<polygon fill="black" stroke="black" points="1034.67,-190.83 1024.6,-194.1 1034.51,-197.83 1034.67,-190.83"/>
<text text-anchor="middle" x="1594.29" y="-231.8" font-family="Times,serif" font-size="14.00">create_image.sh</text>
</g>
<!-- https_roots_file&#45;&gt;Syslinux_Linuxboot_img -->
<g id="edge19" class="edge">
<title>https_roots_file&#45;&gt;Syslinux_Linuxboot_img</title>
<path fill="none" stroke="black" d="M1014.36,-261.15C1002.65,-250.9 986.9,-237.92 971.79,-228 964.29,-223.08 956.02,-218.31 947.89,-213.97"/>
<polygon fill="black" stroke="black" points="949.32,-210.77 938.84,-209.26 946.09,-216.98 949.32,-210.77"/>
<text text-anchor="middle" x="1050.29" y="-231.8" font-family="Times,serif" font-size="14.00">create_image.sh</text>
</g>
<!-- ntp_server_file&#45;&gt;Syslinux_Linuxboot_img -->
<g id="edge20" class="edge">
<title>ntp_server_file&#45;&gt;Syslinux_Linuxboot_img</title>
<path fill="none" stroke="black" d="M1229.33,-263.12C1197.72,-252.2 1152.93,-237.66 1112.79,-228 1076.34,-219.23 1035.78,-211.89 1000.17,-206.24"/>
<polygon fill="black" stroke="black" points="1000.69,-202.78 990.27,-204.69 999.61,-209.69 1000.69,-202.78"/>
<text text-anchor="middle" x="1223.29" y="-231.8" font-family="Times,serif" font-size="14.00">create_image.sh</text>
</g>
<!-- stboot_ball -->
<g id="node15" class="node">
<title>stboot_ball</title>
<g id="a_node15"><a xlink:title="configs/debian&#45;buster&#45;amd64/stboot.ball">
<ellipse fill="none" stroke="black" cx="2040.79" cy="-192" rx="59.59" ry="18"/>
<text text-anchor="middle" x="2040.79" y="-188.3" font-family="Times,serif" font-size="14.00">stboot.ball</text>
</a>
</g>
</g>
<!-- root_cert_keys&#45;&gt;stboot_ball -->
<g id="edge13" class="edge">
<title>root_cert_keys&#45;&gt;stboot_ball</title>
<path fill="none" stroke="black" d="M1955.74,-261.21C1972.06,-248.12 1994.88,-229.81 2012.78,-215.46"/>
<polygon fill="black" stroke="black" points="2015,-218.17 2020.61,-209.18 2010.62,-212.71 2015,-218.17"/>
<text text-anchor="middle" x="2022.29" y="-231.8" font-family="Times,serif" font-size="14.00">stconfig</text>
</g>
<!-- stconfig_json&#45;&gt;stboot_ball -->
<g id="edge14" class="edge">
<title>stconfig_json&#45;&gt;stboot_ball</title>
<path fill="none" stroke="black" d="M2127.97,-261.61C2111.28,-248.47 2087.68,-229.91 2069.25,-215.4"/>
<polygon fill="black" stroke="black" points="2071.21,-212.48 2061.19,-209.05 2066.88,-217.99 2071.21,-212.48"/>
<text text-anchor="middle" x="2129.29" y="-231.8" font-family="Times,serif" font-size="14.00">stconfig</text>
</g>
<!-- netsetup_elv -->
<g id="node9" class="node">
<title>netsetup_elv</title>
<ellipse fill="none" stroke="black" cx="279.79" cy="-279" rx="68.49" ry="18"/>
<text text-anchor="middle" x="279.79" y="-275.3" font-family="Times,serif" font-size="14.00">netsetup.elv</text>
</g>
<!-- netsetup_elv&#45;&gt;initramfs_linuxboot -->
<g id="edge9" class="edge">
<title>netsetup_elv&#45;&gt;initramfs_linuxboot</title>
<path fill="none" stroke="black" d="M275.54,-260.7C274.01,-250.28 274.07,-237.28 280.79,-228 285.65,-221.3 291.89,-215.87 298.88,-211.48"/>
<polygon fill="black" stroke="black" points="300.98,-214.31 308.07,-206.45 297.62,-208.17 300.98,-214.31"/>
<text text-anchor="middle" x="302.29" y="-231.8" font-family="Times,serif" font-size="14.00">u&#45;root</text>
</g>
<!-- initramfs_linuxboot_cpio_gz -->
<g id="node13" class="node">
<title>initramfs_linuxboot_cpio_gz</title>
<g id="a_node13"><a xlink:title="stboot/initramfs&#45;linuxboot.cpio.gz">
<ellipse fill="none" stroke="black" cx="380.79" cy="-105" rx="135.38" ry="18"/>
<text text-anchor="middle" x="380.79" y="-101.3" font-family="Times,serif" font-size="14.00">initramfs&#45;linuxboot.cpio.gz</text>
</a>
</g>
</g>
<!-- initramfs_linuxboot&#45;&gt;initramfs_linuxboot_cpio_gz -->
<g id="edge15" class="edge">
<title>initramfs_linuxboot&#45;&gt;initramfs_linuxboot_cpio_gz</title>
<path fill="none" stroke="black" d="M380.79,-173.8C380.79,-162.16 380.79,-146.55 380.79,-133.24"/>
<polygon fill="black" stroke="black" points="384.29,-133.18 380.79,-123.18 377.29,-133.18 384.29,-133.18"/>
<text text-anchor="middle" x="396.29" y="-144.8" font-family="Times,serif" font-size="14.00">gzip</text>
</g>
<!-- coreboot_rom -->
<g id="node11" class="node">
<title>coreboot_rom</title>
<g id="a_node11"><a xlink:title="deploy/coreboot&#45;rom/coreboot/build/coreboot.rom">
<ellipse fill="none" stroke="black" cx="72.79" cy="-105" rx="72.59" ry="18"/>
<text text-anchor="middle" x="72.79" y="-101.3" font-family="Times,serif" font-size="14.00">coreboot.rom</text>
</a>
</g>
</g>
<!-- coreboot_rom_with_payload -->
<g id="node14" class="node">
<title>coreboot_rom_with_payload</title>
<g id="a_node14"><a xlink:title="deploy/coreboot&#45;rom/coreboot/build/coreboot.rom">
<ellipse fill="none" stroke="black" cx="173.79" cy="-18" rx="72.59" ry="18"/>
<text text-anchor="middle" x="173.79" y="-14.3" font-family="Times,serif" font-size="14.00">coreboot.rom</text>
</a>
</g>
</g>
<!-- coreboot_rom&#45;&gt;coreboot_rom_with_payload -->
<g id="edge10" class="edge">
<title>coreboot_rom&#45;&gt;coreboot_rom_with_payload</title>
<path fill="none" stroke="black" d="M79.94,-87.02C85.06,-76.46 92.81,-63.19 102.79,-54 109.55,-47.78 117.62,-42.42 125.85,-37.9"/>
<polygon fill="black" stroke="black" points="127.49,-40.99 134.8,-33.32 124.3,-34.76 127.49,-40.99"/>
<text text-anchor="middle" x="131.29" y="-57.8" font-family="Times,serif" font-size="14.00">cbfstool</text>
</g>
<!-- lnxbt_kernel -->
<g id="node12" class="node">
<title>lnxbt_kernel</title>
<g id="a_node12"><a xlink:title="deploy/mixed&#45;firmware/vmlinuz&#45;linuxboot">
<ellipse fill="none" stroke="black" cx="99.79" cy="-279" rx="93.68" ry="18"/>
<text text-anchor="middle" x="99.79" y="-275.3" font-family="Times,serif" font-size="14.00">vmlinuz&#45;linuxboot</text>
</a>
</g>
</g>
<!-- lnxbt_kernel&#45;&gt;coreboot_rom_with_payload -->
<g id="edge11" class="edge">
<title>lnxbt_kernel&#45;&gt;coreboot_rom_with_payload</title>
<path fill="none" stroke="black" d="M107,-260.62C118.51,-232.26 141.17,-174.04 154.79,-123 161.65,-97.33 166.82,-67.43 170.03,-46.3"/>
<polygon fill="black" stroke="black" points="173.54,-46.52 171.53,-36.12 166.61,-45.5 173.54,-46.52"/>
<text text-anchor="middle" x="178.29" y="-144.8" font-family="Times,serif" font-size="14.00">cbfstool</text>
</g>
<!-- lnxbt_kernel&#45;&gt;Syslinux_Linuxboot_img -->
<g id="edge21" class="edge">
<title>lnxbt_kernel&#45;&gt;Syslinux_Linuxboot_img</title>
<path fill="none" stroke="black" d="M167.92,-266.6C179.55,-264.7 191.51,-262.77 202.79,-261 256.51,-252.57 273.89,-264.57 323.79,-243 333.67,-238.73 332.74,-231.84 342.79,-228 362.85,-220.33 620.52,-206.66 779.58,-198.87"/>
<polygon fill="black" stroke="black" points="780.1,-202.35 789.91,-198.36 779.75,-195.36 780.1,-202.35"/>
<text text-anchor="middle" x="401.29" y="-231.8" font-family="Times,serif" font-size="14.00">create_image.sh</text>
</g>
<!-- initramfs_linuxboot_cpio_gz&#45;&gt;coreboot_rom_with_payload -->
<g id="edge12" class="edge">
<title>initramfs_linuxboot_cpio_gz&#45;&gt;coreboot_rom_with_payload</title>
<path fill="none" stroke="black" d="M340.88,-87.61C306.05,-73.31 255.52,-52.56 219.16,-37.63"/>
<polygon fill="black" stroke="black" points="220.36,-34.34 209.78,-33.78 217.7,-40.81 220.36,-34.34"/>
<text text-anchor="middle" x="318.29" y="-57.8" font-family="Times,serif" font-size="14.00">cbfstool</text>
</g>
<!-- Syslinux_Linuxboot_img_with_initrd -->
<g id="node20" class="node">
<title>Syslinux_Linuxboot_img_with_initrd</title>
<g id="a_node20"><a xlink:title="deploy/mixed&#45;firmware/Syslinux_Linuxboot.img">
<ellipse fill="none" stroke="black" cx="447.79" cy="-18" rx="121.58" ry="18"/>
<text text-anchor="middle" x="447.79" y="-14.3" font-family="Times,serif" font-size="14.00">Syslinux_Linuxboot.img</text>
</a>
</g>
</g>
<!-- initramfs_linuxboot_cpio_gz&#45;&gt;Syslinux_Linuxboot_img_with_initrd -->
<g id="edge24" class="edge">
<title>initramfs_linuxboot_cpio_gz&#45;&gt;Syslinux_Linuxboot_img_with_initrd</title>
<path fill="none" stroke="black" d="M394.35,-86.8C403.98,-74.59 417.06,-57.99 427.87,-44.28"/>
<polygon fill="black" stroke="black" points="430.81,-46.2 434.26,-36.18 425.32,-41.86 430.81,-46.2"/>
<text text-anchor="middle" x="499.29" y="-57.8" font-family="Times,serif" font-size="14.00">mv_initrd_to_image.sh</text>
</g>
<!-- lnxbt_kernel_src -->
<g id="node16" class="node">
<title>lnxbt_kernel_src</title>
<g id="a_node16"><a xlink:title="https://cdn.kernel.org/pub/linux/kernel/v4.x/linux&#45;4.19.6">
<ellipse fill="none" stroke="black" cx="99.79" cy="-366" rx="65.79" ry="18"/>
<text text-anchor="middle" x="99.79" y="-362.3" font-family="Times,serif" font-size="14.00">linux&#45;4.19.6</text>
</a>
</g>
</g>
<!-- lnxbt_kernel_src&#45;&gt;lnxbt_kernel -->
<g id="edge16" class="edge">
<title>lnxbt_kernel_src&#45;&gt;lnxbt_kernel</title>
<path fill="none" stroke="black" d="M99.79,-347.8C99.79,-336.16 99.79,-320.55 99.79,-307.24"/>
<polygon fill="black" stroke="black" points="103.29,-307.18 99.79,-297.18 96.29,-307.18 103.29,-307.18"/>
<text text-anchor="middle" x="154.29" y="-318.8" font-family="Times,serif" font-size="14.00">build_kernel.sh</text>
</g>
<!-- syslinux_bootloader -->
<g id="node17" class="node">
<title>syslinux_bootloader</title>
<g id="a_node17"><a xlink:title="https://mirrors.edge.kernel.org/pub/linux/utils/boot/syslinux/syslinux&#45;6.03.tar.xz">
<ellipse fill="none" stroke="black" cx="630.79" cy="-279" rx="100.98" ry="18"/>
<text text-anchor="middle" x="630.79" y="-275.3" font-family="Times,serif" font-size="14.00">syslinux&#45;6.03.tar.xz</text>
</a>
</g>
</g>
<!-- syslinux_bootloader&#45;&gt;Syslinux_Linuxboot_img -->
<g id="edge22" class="edge">
<title>syslinux_bootloader&#45;&gt;Syslinux_Linuxboot_img</title>
<path fill="none" stroke="black" d="M655.37,-261.52C672.91,-250.49 697.44,-236.47 720.79,-228 747.2,-218.42 776.75,-211.31 804.27,-206.1"/>
<polygon fill="black" stroke="black" points="805.1,-209.51 814.3,-204.27 803.84,-202.62 805.1,-209.51"/>
<text text-anchor="middle" x="779.29" y="-231.8" font-family="Times,serif" font-size="14.00">create_image.sh</text>
</g>
<!-- syslinux_config -->
<g id="node18" class="node">
<title>syslinux_config</title>
<g id="a_node18"><a xlink:title="deploy/mixed&#45;firmware/syslinux.cfg">
<ellipse fill="none" stroke="black" cx="814.79" cy="-279" rx="65.79" ry="18"/>
<text text-anchor="middle" x="814.79" y="-275.3" font-family="Times,serif" font-size="14.00">syslinux.cfg</text>
</a>
</g>
</g>
<!-- syslinux_config&#45;&gt;Syslinux_Linuxboot_img -->
<g id="edge23" class="edge">
<title>syslinux_config&#45;&gt;Syslinux_Linuxboot_img</title>
<path fill="none" stroke="black" d="M826.36,-261.27C833.84,-251.07 844.14,-238.09 854.79,-228 859.22,-223.81 864.17,-219.71 869.18,-215.88"/>
<polygon fill="black" stroke="black" points="871.58,-218.46 877.58,-209.72 867.44,-212.82 871.58,-218.46"/>
<text text-anchor="middle" x="913.29" y="-231.8" font-family="Times,serif" font-size="14.00">create_image.sh</text>
</g>
<!-- Syslinux_Linuxboot_img&#45;&gt;Syslinux_Linuxboot_img_with_initrd -->
<g id="edge25" class="edge">
<title>Syslinux_Linuxboot_img&#45;&gt;Syslinux_Linuxboot_img_with_initrd</title>
<path fill="none" stroke="black" d="M870.36,-174.67C812.86,-147.04 691.06,-90.52 583.79,-54 563.96,-47.25 542.12,-41.08 521.85,-35.87"/>
<polygon fill="black" stroke="black" points="522.59,-32.45 512.04,-33.4 520.88,-39.24 522.59,-32.45"/>
<text text-anchor="middle" x="836.29" y="-101.3" font-family="Times,serif" font-size="14.00">mv_initrd_to_image.sh</text>
</g>
<!-- run_sh -->
<g id="node21" class="node">
<title>run_sh</title>
<g id="a_node21"><a xlink:title="run.sh">
<ellipse fill="none" stroke="black" cx="2347.79" cy="-366" rx="40.09" ry="18"/>
<text text-anchor="middle" x="2347.79" y="-362.3" font-family="Times,serif" font-size="14.00">run.sh</text>
</a>
</g>
</g>
<!-- prov_server_access_sh -->
<g id="node22" class="node">
<title>prov_server_access_sh</title>
<g id="a_node22"><a xlink:title="stconfig/prov&#45;server&#45;access.sh">
<ellipse fill="none" stroke="black" cx="2347.79" cy="-279" rx="111.28" ry="18"/>
<text text-anchor="middle" x="2347.79" y="-275.3" font-family="Times,serif" font-size="14.00">prov&#45;server&#45;access.sh</text>
</a>
</g>
</g>
<!-- run_sh&#45;&gt;prov_server_access_sh -->
<g id="edge26" class="edge">
<title>run_sh&#45;&gt;prov_server_access_sh</title>
<path fill="none" stroke="black" d="M2347.79,-347.8C2347.79,-336.16 2347.79,-320.55 2347.79,-307.24"/>
<polygon fill="black" stroke="black" points="2351.29,-307.18 2347.79,-297.18 2344.29,-307.18 2351.29,-307.18"/>
</g>
</g>
</svg>
