<?xml version="1.0" encoding="UTF-8" standalone="no"?>
<!DOCTYPE svg PUBLIC "-//W3C//DTD SVG 1.1//EN"
 "http://www.w3.org/Graphics/SVG/1.1/DTD/svg11.dtd">
<!-- Generated by graphviz version 2.43.0 (0)
 -->
<!-- Title: make_mbr_bootloader Pages: 1 -->
<svg width="1736pt" height="1340pt"
 viewBox="0.00 0.00 1736.00 1340.00" xmlns="http://www.w3.org/2000/svg" xmlns:xlink="http://www.w3.org/1999/xlink">
<g id="graph0" class="graph" transform="scale(1 1) rotate(0) translate(4 1336)">
<title>make_mbr_bootloader</title>
<polygon fill="white" stroke="transparent" points="-4,4 -4,-1336 1732,-1336 1732,4 -4,4"/>
<!-- make_mbr_bootloader.sh -->
<g id="node1" class="node">
<title>make_mbr_bootloader.sh</title>
<polygon fill="lightgrey" stroke="black" points="432,-576 0,-576 0,-540 432,-540 432,-576"/>
<text text-anchor="middle" x="216" y="-554.3" font-family="Times,serif" font-size="14.00">make_mbr_bootloader.sh</text>
</g>
<!-- build_security_config.sh -->
<g id="node2" class="node">
<title>build_security_config.sh</title>
<polygon fill="lightgrey" stroke="black" points="1080,-1170 648,-1170 648,-1134 1080,-1134 1080,-1170"/>
<text text-anchor="middle" x="864" y="-1148.3" font-family="Times,serif" font-size="14.00">build_security_config.sh</text>
</g>
<!-- make_mbr_bootloader.sh&#45;&gt;build_security_config.sh -->
<g id="edge1" class="edge">
<title>make_mbr_bootloader.sh:e&#45;&gt;build_security_config.sh:w</title>
<path fill="none" stroke="black" d="M432,-558C709.48,-558 375.44,-1137.59 637.99,-1151.74"/>
<polygon fill="black" stroke="black" points="637.91,-1155.24 648,-1152 638.1,-1148.24 637.91,-1155.24"/>
</g>
<!-- build_initramfs.sh -->
<g id="node6" class="node">
<title>build_initramfs.sh</title>
<polygon fill="lightgrey" stroke="black" points="1080,-1008 648,-1008 648,-972 1080,-972 1080,-1008"/>
<text text-anchor="middle" x="864" y="-986.3" font-family="Times,serif" font-size="14.00">build_initramfs.sh</text>
</g>
<!-- make_mbr_bootloader.sh&#45;&gt;build_initramfs.sh -->
<g id="edge5" class="edge">
<title>make_mbr_bootloader.sh:e&#45;&gt;build_initramfs.sh:w</title>
<path fill="none" stroke="black" d="M432,-558C643.2,-558 440.1,-976.19 637.95,-989.67"/>
<polygon fill="black" stroke="black" points="637.89,-993.17 648,-990 638.12,-986.17 637.89,-993.17"/>
</g>
<!-- build_kernel.sh -->
<g id="node8" class="node">
<title>build_kernel.sh</title>
<polygon fill="lightgrey" stroke="black" points="1080,-900 648,-900 648,-864 1080,-864 1080,-900"/>
<text text-anchor="middle" x="864" y="-878.3" font-family="Times,serif" font-size="14.00">build_kernel.sh</text>
</g>
<!-- make_mbr_bootloader.sh&#45;&gt;build_kernel.sh -->
<g id="edge7" class="edge">
<title>make_mbr_bootloader.sh:e&#45;&gt;build_kernel.sh:w</title>
<path fill="none" stroke="black" d="M432,-558C601.52,-558 480.14,-868.85 637.73,-881.6"/>
<polygon fill="black" stroke="black" points="637.87,-885.1 648,-882 638.15,-878.11 637.87,-885.1"/>
</g>
<!-- build_syslinux_config.sh -->
<g id="node10" class="node">
<title>build_syslinux_config.sh</title>
<polygon fill="lightgrey" stroke="black" points="1080,-792 648,-792 648,-756 1080,-756 1080,-792"/>
<text text-anchor="middle" x="864" y="-770.3" font-family="Times,serif" font-size="14.00">build_syslinux_config.sh</text>
</g>
<!-- make_mbr_bootloader.sh&#45;&gt;build_syslinux_config.sh -->
<g id="edge9" class="edge">
<title>make_mbr_bootloader.sh:e&#45;&gt;build_syslinux_config.sh:w</title>
<path fill="none" stroke="black" d="M432,-558C564.18,-558 515.03,-762.76 637.65,-773.56"/>
<polygon fill="black" stroke="black" points="637.86,-777.07 648,-774 638.16,-770.08 637.86,-777.07"/>
</g>
<!-- build_host_config.sh -->
<g id="node11" class="node">
<title>build_host_config.sh</title>
<polygon fill="lightgrey" stroke="black" points="1080,-684 648,-684 648,-648 1080,-648 1080,-684"/>
<text text-anchor="middle" x="864" y="-662.3" font-family="Times,serif" font-size="14.00">build_host_config.sh</text>
</g>
<!-- make_mbr_bootloader.sh&#45;&gt;build_host_config.sh -->
<g id="edge10" class="edge">
<title>make_mbr_bootloader.sh:e&#45;&gt;build_host_config.sh:w</title>
<path fill="none" stroke="black" d="M432,-558C535.87,-558 540.47,-659.15 637.95,-665.67"/>
<polygon fill="black" stroke="black" points="637.89,-669.17 648,-666 638.12,-662.17 637.89,-669.17"/>
</g>
<!-- build_boot_filesystem.sh -->
<g id="node17" class="node">
<title>build_boot_filesystem.sh</title>
<polygon fill="lightgrey" stroke="black" points="1080,-576 648,-576 648,-540 1080,-540 1080,-576"/>
<text text-anchor="middle" x="864" y="-554.3" font-family="Times,serif" font-size="14.00">build_boot_filesystem.sh</text>
</g>
<!-- make_mbr_bootloader.sh&#45;&gt;build_boot_filesystem.sh -->
<g id="edge16" class="edge">
<title>make_mbr_bootloader.sh:e&#45;&gt;build_boot_filesystem.sh:w</title>
<path fill="none" stroke="black" d="M432,-558C524.53,-558 550.17,-558 637.87,-558"/>
<polygon fill="black" stroke="black" points="638,-561.5 648,-558 638,-554.5 638,-561.5"/>
</g>
<!-- build_data_filesystem.sh -->
<g id="node18" class="node">
<title>build_data_filesystem.sh</title>
<polygon fill="lightgrey" stroke="black" points="1080,-468 648,-468 648,-432 1080,-432 1080,-468"/>
<text text-anchor="middle" x="864" y="-446.3" font-family="Times,serif" font-size="14.00">build_data_filesystem.sh</text>
</g>
<!-- make_mbr_bootloader.sh&#45;&gt;build_data_filesystem.sh -->
<g id="edge17" class="edge">
<title>make_mbr_bootloader.sh:e&#45;&gt;build_data_filesystem.sh:w</title>
<path fill="none" stroke="black" d="M432,-558C535.87,-558 540.47,-456.85 637.95,-450.33"/>
<polygon fill="black" stroke="black" points="638.12,-453.83 648,-450 637.89,-446.83 638.12,-453.83"/>
</g>
<!-- build_image.sh -->
<g id="node20" class="node">
<title>build_image.sh</title>
<polygon fill="lightgrey" stroke="black" points="1080,-360 648,-360 648,-324 1080,-324 1080,-360"/>
<text text-anchor="middle" x="864" y="-338.3" font-family="Times,serif" font-size="14.00">build_image.sh</text>
</g>
<!-- make_mbr_bootloader.sh&#45;&gt;build_image.sh -->
<g id="edge19" class="edge">
<title>make_mbr_bootloader.sh:e&#45;&gt;build_image.sh:w</title>
<path fill="none" stroke="black" d="M432,-558C564.18,-558 515.03,-353.24 637.65,-342.44"/>
<polygon fill="black" stroke="black" points="638.16,-345.92 648,-342 637.86,-338.93 638.16,-345.92"/>
</g>
<!-- ST_BOOT_MBR_KERNEL_VERSION -->
<g id="node21" class="node">
<title>ST_BOOT_MBR_KERNEL_VERSION</title>
<ellipse fill="none" stroke="black" cx="864" cy="-234" rx="216" ry="18"/>
<text text-anchor="middle" x="864" y="-230.3" font-family="Times,serif" font-size="14.00">ST_BOOT_MBR_KERNEL_VERSION</text>
</g>
<!-- make_mbr_bootloader.sh&#45;&gt;ST_BOOT_MBR_KERNEL_VERSION -->
<g id="edge20" class="edge">
<title>make_mbr_bootloader.sh:e&#45;&gt;ST_BOOT_MBR_KERNEL_VERSION:w</title>
<path fill="none" stroke="black" d="M432,-558C601.52,-558 480.14,-247.15 637.73,-234.4"/>
<polygon fill="black" stroke="black" points="638.15,-237.89 648,-234 637.87,-230.9 638.15,-237.89"/>
</g>
<!-- ST_BOOT_MBR_KERNEL_CONFIG -->
<g id="node22" class="node">
<title>ST_BOOT_MBR_KERNEL_CONFIG</title>
<ellipse fill="none" stroke="black" cx="864" cy="-126" rx="216" ry="18"/>
<text text-anchor="middle" x="864" y="-122.3" font-family="Times,serif" font-size="14.00">ST_BOOT_MBR_KERNEL_CONFIG</text>
</g>
<!-- make_mbr_bootloader.sh&#45;&gt;ST_BOOT_MBR_KERNEL_CONFIG -->
<g id="edge21" class="edge">
<title>make_mbr_bootloader.sh:e&#45;&gt;ST_BOOT_MBR_KERNEL_CONFIG:w</title>
<path fill="none" stroke="black" d="M432,-558C643.2,-558 440.1,-139.81 637.95,-126.33"/>
<polygon fill="black" stroke="black" points="638.12,-129.83 648,-126 637.89,-122.83 638.12,-129.83"/>
</g>
<!-- ST_BOOT_COMMON_LINUXBOOT_CMDLINE -->
<g id="node23" class="node">
<title>ST_BOOT_COMMON_LINUXBOOT_CMDLINE</title>
<ellipse fill="none" stroke="black" cx="864" cy="-18" rx="216" ry="18"/>
<text text-anchor="middle" x="864" y="-14.3" font-family="Times,serif" font-size="14.00">ST_BOOT_COMMON_LINUXBOOT_CMDLINE</text>
</g>
<!-- make_mbr_bootloader.sh&#45;&gt;ST_BOOT_COMMON_LINUXBOOT_CMDLINE -->
<g id="edge22" class="edge">
<title>make_mbr_bootloader.sh:e&#45;&gt;ST_BOOT_COMMON_LINUXBOOT_CMDLINE:w</title>
<path fill="none" stroke="black" d="M432,-558C686.95,-558 397.64,-32.66 637.71,-18.3"/>
<polygon fill="black" stroke="black" points="638.11,-21.79 648,-18 637.9,-14.79 638.11,-21.79"/>
</g>
<!-- ST_BOOT_COMMON_ROOTCERT_FINGERPRINT_FILE -->
<g id="node3" class="node">
<title>ST_BOOT_COMMON_ROOTCERT_FINGERPRINT_FILE</title>
<ellipse fill="none" stroke="black" cx="1512" cy="-1314" rx="216" ry="18"/>
<text text-anchor="middle" x="1512" y="-1310.3" font-family="Times,serif" font-size="14.00">ST_BOOT_COMMON_ROOTCERT_FINGERPRINT_FILE</text>
</g>
<!-- build_security_config.sh&#45;&gt;ST_BOOT_COMMON_ROOTCERT_FINGERPRINT_FILE -->
<g id="edge2" class="edge">
<title>build_security_config.sh:e&#45;&gt;ST_BOOT_COMMON_ROOTCERT_FINGERPRINT_FILE:w</title>
<path fill="none" stroke="black" d="M1080,-1152C1196.48,-1152 1177.28,-1304.65 1285.82,-1313.59"/>
<polygon fill="black" stroke="black" points="1285.87,-1317.1 1296,-1314 1286.15,-1310.1 1285.87,-1317.1"/>
</g>
<!-- ST_BOOT_COMMON_NUM_SIGNATURES -->
<g id="node4" class="node">
<title>ST_BOOT_COMMON_NUM_SIGNATURES</title>
<ellipse fill="none" stroke="black" cx="1512" cy="-1206" rx="216" ry="18"/>
<text text-anchor="middle" x="1512" y="-1202.3" font-family="Times,serif" font-size="14.00">ST_BOOT_COMMON_NUM_SIGNATURES</text>
</g>
<!-- build_security_config.sh&#45;&gt;ST_BOOT_COMMON_NUM_SIGNATURES -->
<g id="edge3" class="edge">
<title>build_security_config.sh:e&#45;&gt;ST_BOOT_COMMON_NUM_SIGNATURES:w</title>
<path fill="none" stroke="black" d="M1080,-1152C1175.48,-1152 1195.67,-1202.27 1285.86,-1205.8"/>
<polygon fill="black" stroke="black" points="1285.93,-1209.31 1296,-1206 1286.07,-1202.31 1285.93,-1209.31"/>
</g>
<!-- ST_BOOT_COMMON_BOOT_MODE -->
<g id="node5" class="node">
<title>ST_BOOT_COMMON_BOOT_MODE</title>
<ellipse fill="none" stroke="black" cx="1512" cy="-1098" rx="216" ry="18"/>
<text text-anchor="middle" x="1512" y="-1094.3" font-family="Times,serif" font-size="14.00">ST_BOOT_COMMON_BOOT_MODE</text>
</g>
<!-- build_security_config.sh&#45;&gt;ST_BOOT_COMMON_BOOT_MODE -->
<g id="edge4" class="edge">
<title>build_security_config.sh:e&#45;&gt;ST_BOOT_COMMON_BOOT_MODE:w</title>
<path fill="none" stroke="black" d="M1080,-1152C1175.48,-1152 1195.67,-1101.73 1285.86,-1098.2"/>
<polygon fill="black" stroke="black" points="1286.07,-1101.69 1296,-1098 1285.93,-1094.69 1286.07,-1101.69"/>
</g>
<!-- ST_BOOT_COMMON_LINUXBOOT_VARIANT -->
<g id="node7" class="node">
<title>ST_BOOT_COMMON_LINUXBOOT_VARIANT</title>
<ellipse fill="none" stroke="black" cx="1512" cy="-990" rx="216" ry="18"/>
<text text-anchor="middle" x="1512" y="-986.3" font-family="Times,serif" font-size="14.00">ST_BOOT_COMMON_LINUXBOOT_VARIANT</text>
</g>
<!-- build_initramfs.sh&#45;&gt;ST_BOOT_COMMON_LINUXBOOT_VARIANT -->
<g id="edge6" class="edge">
<title>build_initramfs.sh:e&#45;&gt;ST_BOOT_COMMON_LINUXBOOT_VARIANT:w</title>
<path fill="none" stroke="black" d="M1080,-990C1172.53,-990 1198.17,-990 1285.87,-990"/>
<polygon fill="black" stroke="black" points="1286,-993.5 1296,-990 1286,-986.5 1286,-993.5"/>
</g>
<!-- ST_BOOT_COMMON_CUSTOMIZE_KERNEL_CONFIG -->
<g id="node9" class="node">
<title>ST_BOOT_COMMON_CUSTOMIZE_KERNEL_CONFIG</title>
<ellipse fill="none" stroke="black" cx="1512" cy="-882" rx="216" ry="18"/>
<text text-anchor="middle" x="1512" y="-878.3" font-family="Times,serif" font-size="14.00">ST_BOOT_COMMON_CUSTOMIZE_KERNEL_CONFIG</text>
</g>
<!-- build_kernel.sh&#45;&gt;ST_BOOT_COMMON_CUSTOMIZE_KERNEL_CONFIG -->
<g id="edge8" class="edge">
<title>build_kernel.sh:e&#45;&gt;ST_BOOT_COMMON_CUSTOMIZE_KERNEL_CONFIG:w</title>
<path fill="none" stroke="black" d="M1080,-882C1172.53,-882 1198.17,-882 1285.87,-882"/>
<polygon fill="black" stroke="black" points="1286,-885.5 1296,-882 1286,-878.5 1286,-885.5"/>
</g>
<!-- ST_BOOT_COMMON_NETWORK_MODE -->
<g id="node12" class="node">
<title>ST_BOOT_COMMON_NETWORK_MODE</title>
<ellipse fill="none" stroke="black" cx="1512" cy="-774" rx="216" ry="18"/>
<text text-anchor="middle" x="1512" y="-770.3" font-family="Times,serif" font-size="14.00">ST_BOOT_COMMON_NETWORK_MODE</text>
</g>
<!-- build_host_config.sh&#45;&gt;ST_BOOT_COMMON_NETWORK_MODE -->
<g id="edge11" class="edge">
<title>build_host_config.sh:e&#45;&gt;ST_BOOT_COMMON_NETWORK_MODE:w</title>
<path fill="none" stroke="black" d="M1080,-666C1183.87,-666 1188.47,-767.15 1285.95,-773.67"/>
<polygon fill="black" stroke="black" points="1285.89,-777.17 1296,-774 1286.12,-770.17 1285.89,-777.17"/>
</g>
<!-- ST_BOOT_COMMON_NETWORK_HOST_IP -->
<g id="node13" class="node">
<title>ST_BOOT_COMMON_NETWORK_HOST_IP</title>
<ellipse fill="none" stroke="black" cx="1512" cy="-666" rx="216" ry="18"/>
<text text-anchor="middle" x="1512" y="-662.3" font-family="Times,serif" font-size="14.00">ST_BOOT_COMMON_NETWORK_HOST_IP</text>
</g>
<!-- build_host_config.sh&#45;&gt;ST_BOOT_COMMON_NETWORK_HOST_IP -->
<g id="edge12" class="edge">
<title>build_host_config.sh:e&#45;&gt;ST_BOOT_COMMON_NETWORK_HOST_IP:w</title>
<path fill="none" stroke="black" d="M1080,-666C1172.53,-666 1198.17,-666 1285.87,-666"/>
<polygon fill="black" stroke="black" points="1286,-669.5 1296,-666 1286,-662.5 1286,-669.5"/>
</g>
<!-- ST_BOOT_COMMON_NETWORK_HOST_GATEWAY -->
<g id="node14" class="node">
<title>ST_BOOT_COMMON_NETWORK_HOST_GATEWAY</title>
<ellipse fill="none" stroke="black" cx="1512" cy="-558" rx="216" ry="18"/>
<text text-anchor="middle" x="1512" y="-554.3" font-family="Times,serif" font-size="14.00">ST_BOOT_COMMON_NETWORK_HOST_GATEWAY</text>
</g>
<!-- build_host_config.sh&#45;&gt;ST_BOOT_COMMON_NETWORK_HOST_GATEWAY -->
<g id="edge13" class="edge">
<title>build_host_config.sh:e&#45;&gt;ST_BOOT_COMMON_NETWORK_HOST_GATEWAY:w</title>
<path fill="none" stroke="black" d="M1080,-666C1183.87,-666 1188.47,-564.85 1285.95,-558.33"/>
<polygon fill="black" stroke="black" points="1286.12,-561.83 1296,-558 1285.89,-554.83 1286.12,-561.83"/>
</g>
<!-- ST_BOOT_COMMON_NETWORK_HOST_DNS -->
<g id="node15" class="node">
<title>ST_BOOT_COMMON_NETWORK_HOST_DNS</title>
<ellipse fill="none" stroke="black" cx="1512" cy="-450" rx="216" ry="18"/>
<text text-anchor="middle" x="1512" y="-446.3" font-family="Times,serif" font-size="14.00">ST_BOOT_COMMON_NETWORK_HOST_DNS</text>
</g>
<!-- build_host_config.sh&#45;&gt;ST_BOOT_COMMON_NETWORK_HOST_DNS -->
<g id="edge14" class="edge">
<title>build_host_config.sh:e&#45;&gt;ST_BOOT_COMMON_NETWORK_HOST_DNS:w</title>
<path fill="none" stroke="black" d="M1080,-666C1212.18,-666 1163.03,-461.24 1285.65,-450.44"/>
<polygon fill="black" stroke="black" points="1286.16,-453.92 1296,-450 1285.86,-446.93 1286.16,-453.92"/>
</g>
<!-- ST_BOOT_COMMON_PROVISIONING_SERVER_URL -->
<g id="node16" class="node">
<title>ST_BOOT_COMMON_PROVISIONING_SERVER_URL</title>
<ellipse fill="none" stroke="black" cx="1512" cy="-342" rx="216" ry="18"/>
<text text-anchor="middle" x="1512" y="-338.3" font-family="Times,serif" font-size="14.00">ST_BOOT_COMMON_PROVISIONING_SERVER_URL</text>
</g>
<!-- build_host_config.sh&#45;&gt;ST_BOOT_COMMON_PROVISIONING_SERVER_URL -->
<g id="edge15" class="edge">
<title>build_host_config.sh:e&#45;&gt;ST_BOOT_COMMON_PROVISIONING_SERVER_URL:w</title>
<path fill="none" stroke="black" d="M1080,-666C1249.52,-666 1128.14,-355.15 1285.73,-342.4"/>
<polygon fill="black" stroke="black" points="1286.15,-345.89 1296,-342 1285.87,-338.9 1286.15,-345.89"/>
</g>
<!-- ST_BOOT_COMMON_DATA_PARTITION_SIZE -->
<g id="node19" class="node">
<title>ST_BOOT_COMMON_DATA_PARTITION_SIZE</title>
<ellipse fill="none" stroke="black" cx="1512" cy="-234" rx="216" ry="18"/>
<text text-anchor="middle" x="1512" y="-230.3" font-family="Times,serif" font-size="14.00">ST_BOOT_COMMON_DATA_PARTITION_SIZE</text>
</g>
<!-- build_data_filesystem.sh&#45;&gt;ST_BOOT_COMMON_DATA_PARTITION_SIZE -->
<g id="edge18" class="edge">
<title>build_data_filesystem.sh:e&#45;&gt;ST_BOOT_COMMON_DATA_PARTITION_SIZE:w</title>
<path fill="none" stroke="black" d="M1080,-450C1212.18,-450 1163.03,-245.24 1285.65,-234.44"/>
<polygon fill="black" stroke="black" points="1286.16,-237.92 1296,-234 1285.86,-230.93 1286.16,-237.92"/>
</g>
</g>
</svg>
