<?xml version="1.0" encoding="UTF-8" standalone="no"?>
<!DOCTYPE svg PUBLIC "-//W3C//DTD SVG 1.1//EN"
 "http://www.w3.org/Graphics/SVG/1.1/DTD/svg11.dtd">
<!-- Generated by graphviz version 2.43.0 (0)
 -->
<!-- Title: make_debian Pages: 1 -->
<svg width="1088pt" height="260pt"
 viewBox="0.00 0.00 1088.00 260.00" xmlns="http://www.w3.org/2000/svg" xmlns:xlink="http://www.w3.org/1999/xlink">
<g id="graph0" class="graph" transform="scale(1 1) rotate(0) translate(4 256)">
<title>make_debian</title>
<polygon fill="white" stroke="transparent" points="-4,4 -4,-256 1084,-256 1084,4 -4,4"/>
<!-- make_debian.sh -->
<g id="node1" class="node">
<title>make_debian.sh</title>
<polygon fill="lightgrey" stroke="black" points="432,-144 0,-144 0,-108 432,-108 432,-144"/>
<text text-anchor="middle" x="216" y="-122.3" font-family="Times,serif" font-size="14.00">make_debian.sh</text>
</g>
<!-- build_tboot.sh -->
<g id="node2" class="node">
<title>build_tboot.sh</title>
<polygon fill="lightgrey" stroke="black" points="1080,-252 648,-252 648,-216 1080,-216 1080,-252"/>
<text text-anchor="middle" x="864" y="-230.3" font-family="Times,serif" font-size="14.00">build_tboot.sh</text>
</g>
<!-- make_debian.sh&#45;&gt;build_tboot.sh -->
<g id="edge1" class="edge">
<title>make_debian.sh:e&#45;&gt;build_tboot.sh:w</title>
<path fill="none" stroke="black" d="M432,-126C535.87,-126 540.47,-227.15 637.95,-233.67"/>
<polygon fill="black" stroke="black" points="637.89,-237.17 648,-234 638.12,-230.17 637.89,-237.17"/>
</g>
<!-- get_acms.sh -->
<g id="node3" class="node">
<title>get_acms.sh</title>
<polygon fill="lightgrey" stroke="black" points="1080,-144 648,-144 648,-108 1080,-108 1080,-144"/>
<text text-anchor="middle" x="864" y="-122.3" font-family="Times,serif" font-size="14.00">get_acms.sh</text>
</g>
<!-- make_debian.sh&#45;&gt;get_acms.sh -->
<g id="edge2" class="edge">
<title>make_debian.sh:e&#45;&gt;get_acms.sh:w</title>
<path fill="none" stroke="black" d="M432,-126C524.53,-126 550.17,-126 637.87,-126"/>
<polygon fill="black" stroke="black" points="638,-129.5 648,-126 638,-122.5 638,-129.5"/>
</g>
<!-- build_os_artefacts.sh -->
<g id="node4" class="node">
<title>build_os_artefacts.sh</title>
<polygon fill="lightgrey" stroke="black" points="1080,-36 648,-36 648,0 1080,0 1080,-36"/>
<text text-anchor="middle" x="864" y="-14.3" font-family="Times,serif" font-size="14.00">build_os_artefacts.sh</text>
</g>
<!-- make_debian.sh&#45;&gt;build_os_artefacts.sh -->
<g id="edge3" class="edge">
<title>make_debian.sh:e&#45;&gt;build_os_artefacts.sh:w</title>
<path fill="none" stroke="black" d="M432,-126C535.87,-126 540.47,-24.85 637.95,-18.33"/>
<polygon fill="black" stroke="black" points="638.12,-21.83 648,-18 637.89,-14.83 638.12,-21.83"/>
</g>
</g>
</svg>
