<?xml version="1.0" encoding="UTF-8" standalone="no"?>
<!DOCTYPE svg PUBLIC "-//W3C//DTD SVG 1.1//EN"
 "http://www.w3.org/Graphics/SVG/1.1/DTD/svg11.dtd">
<!-- Generated by graphviz version 2.43.0 (0)
 -->
<!-- Title: make_coreboot_payload Pages: 1 -->
<svg width="1736pt" height="665pt"
 viewBox="0.00 0.00 1736.00 665.00" xmlns="http://www.w3.org/2000/svg" xmlns:xlink="http://www.w3.org/1999/xlink">
<g id="graph0" class="graph" transform="scale(1 1) rotate(0) translate(4 661)">
<title>make_coreboot_payload</title>
<polygon fill="white" stroke="transparent" points="-4,4 -4,-661 1732,-661 1732,4 -4,4"/>
<!-- make_coreboot_payload.sh -->
<g id="node1" class="node">
<title>make_coreboot_payload.sh</title>
<polygon fill="lightgrey" stroke="black" points="432,-198 0,-198 0,-162 432,-162 432,-198"/>
<text text-anchor="middle" x="216" y="-176.3" font-family="Times,serif" font-size="14.00">make_coreboot_payload.sh</text>
</g>
<!-- build_host_config.sh -->
<g id="node2" class="node">
<title>build_host_config.sh</title>
<polygon fill="lightgrey" stroke="black" points="1080,-387 648,-387 648,-351 1080,-351 1080,-387"/>
<text text-anchor="middle" x="864" y="-365.3" font-family="Times,serif" font-size="14.00">build_host_config.sh</text>
</g>
<!-- make_coreboot_payload.sh&#45;&gt;build_host_config.sh -->
<g id="edge1" class="edge">
<title>make_coreboot_payload.sh:e&#45;&gt;build_host_config.sh:w</title>
<path fill="none" stroke="black" d="M432,-180C556.07,-180 522.45,-358.81 637.9,-368.58"/>
<polygon fill="black" stroke="black" points="637.86,-372.09 648,-369 638.15,-365.09 637.86,-372.09"/>
</g>
<!-- build_boot_filesystem.sh -->
<g id="node8" class="node">
<title>build_boot_filesystem.sh</title>
<polygon fill="lightgrey" stroke="black" points="1080,-252 648,-252 648,-216 1080,-216 1080,-252"/>
<text text-anchor="middle" x="864" y="-230.3" font-family="Times,serif" font-size="14.00">build_boot_filesystem.sh</text>
</g>
<!-- make_coreboot_payload.sh&#45;&gt;build_boot_filesystem.sh -->
<g id="edge7" class="edge">
<title>make_coreboot_payload.sh:e&#45;&gt;build_boot_filesystem.sh:w</title>
<path fill="none" stroke="black" d="M432,-180C527.48,-180 547.67,-230.27 637.86,-233.8"/>
<polygon fill="black" stroke="black" points="637.93,-237.31 648,-234 638.07,-230.31 637.93,-237.31"/>
</g>
<!-- build_data_filesystem.sh -->
<g id="node9" class="node">
<title>build_data_filesystem.sh</title>
<polygon fill="lightgrey" stroke="black" points="1080,-144 648,-144 648,-108 1080,-108 1080,-144"/>
<text text-anchor="middle" x="864" y="-122.3" font-family="Times,serif" font-size="14.00">build_data_filesystem.sh</text>
</g>
<!-- make_coreboot_payload.sh&#45;&gt;build_data_filesystem.sh -->
<g id="edge8" class="edge">
<title>make_coreboot_payload.sh:e&#45;&gt;build_data_filesystem.sh:w</title>
<path fill="none" stroke="black" d="M432,-180C527.48,-180 547.67,-129.73 637.86,-126.2"/>
<polygon fill="black" stroke="black" points="638.07,-129.69 648,-126 637.93,-122.69 638.07,-129.69"/>
</g>
<!-- build_image.sh -->
<g id="node11" class="node">
<title>build_image.sh</title>
<polygon fill="lightgrey" stroke="black" points="1080,-36 648,-36 648,0 1080,0 1080,-36"/>
<text text-anchor="middle" x="864" y="-14.3" font-family="Times,serif" font-size="14.00">build_image.sh</text>
</g>
<!-- make_coreboot_payload.sh&#45;&gt;build_image.sh -->
<g id="edge10" class="edge">
<title>make_coreboot_payload.sh:e&#45;&gt;build_image.sh:w</title>
<path fill="none" stroke="black" d="M432,-180C548.48,-180 529.28,-27.35 637.82,-18.41"/>
<polygon fill="black" stroke="black" points="638.15,-21.9 648,-18 637.87,-14.9 638.15,-21.9"/>
</g>
<!-- ST_BOOT_COMMON_NETWORK_MODE -->
<g id="node3" class="node">
<title>ST_BOOT_COMMON_NETWORK_MODE</title>
<ellipse fill="none" stroke="black" cx="1512" cy="-639" rx="216" ry="18"/>
<text text-anchor="middle" x="1512" y="-635.3" font-family="Times,serif" font-size="14.00">ST_BOOT_COMMON_NETWORK_MODE</text>
</g>
<!-- build_host_config.sh&#45;&gt;ST_BOOT_COMMON_NETWORK_MODE -->
<g id="edge2" class="edge">
<title>build_host_config.sh:e&#45;&gt;ST_BOOT_COMMON_NETWORK_MODE:w</title>
<path fill="none" stroke="black" d="M1080,-369C1230.07,-369 1146.47,-626.49 1285.59,-638.56"/>
<polygon fill="black" stroke="black" points="1285.86,-642.08 1296,-639 1286.16,-635.08 1285.86,-642.08"/>
</g>
<!-- ST_BOOT_COMMON_NETWORK_HOST_IP -->
<g id="node4" class="node">
<title>ST_BOOT_COMMON_NETWORK_HOST_IP</title>
<ellipse fill="none" stroke="black" cx="1512" cy="-531" rx="216" ry="18"/>
<text text-anchor="middle" x="1512" y="-527.3" font-family="Times,serif" font-size="14.00">ST_BOOT_COMMON_NETWORK_HOST_IP</text>
</g>
<!-- build_host_config.sh&#45;&gt;ST_BOOT_COMMON_NETWORK_HOST_IP -->
<g id="edge3" class="edge">
<title>build_host_config.sh:e&#45;&gt;ST_BOOT_COMMON_NETWORK_HOST_IP:w</title>
<path fill="none" stroke="black" d="M1080,-369C1196.48,-369 1177.28,-521.65 1285.82,-530.59"/>
<polygon fill="black" stroke="black" points="1285.87,-534.1 1296,-531 1286.15,-527.1 1285.87,-534.1"/>
</g>
<!-- ST_BOOT_COMMON_NETWORK_HOST_GATEWAY -->
<g id="node5" class="node">
<title>ST_BOOT_COMMON_NETWORK_HOST_GATEWAY</title>
<ellipse fill="none" stroke="black" cx="1512" cy="-423" rx="216" ry="18"/>
<text text-anchor="middle" x="1512" y="-419.3" font-family="Times,serif" font-size="14.00">ST_BOOT_COMMON_NETWORK_HOST_GATEWAY</text>
</g>
<!-- build_host_config.sh&#45;&gt;ST_BOOT_COMMON_NETWORK_HOST_GATEWAY -->
<g id="edge4" class="edge">
<title>build_host_config.sh:e&#45;&gt;ST_BOOT_COMMON_NETWORK_HOST_GATEWAY:w</title>
<path fill="none" stroke="black" d="M1080,-369C1175.48,-369 1195.67,-419.27 1285.86,-422.8"/>
<polygon fill="black" stroke="black" points="1285.93,-426.31 1296,-423 1286.07,-419.31 1285.93,-426.31"/>
</g>
<!-- ST_BOOT_COMMON_NETWORK_HOST_DNS -->
<g id="node6" class="node">
<title>ST_BOOT_COMMON_NETWORK_HOST_DNS</title>
<ellipse fill="none" stroke="black" cx="1512" cy="-315" rx="216" ry="18"/>
<text text-anchor="middle" x="1512" y="-311.3" font-family="Times,serif" font-size="14.00">ST_BOOT_COMMON_NETWORK_HOST_DNS</text>
</g>
<!-- build_host_config.sh&#45;&gt;ST_BOOT_COMMON_NETWORK_HOST_DNS -->
<g id="edge5" class="edge">
<title>build_host_config.sh:e&#45;&gt;ST_BOOT_COMMON_NETWORK_HOST_DNS:w</title>
<path fill="none" stroke="black" d="M1080,-369C1175.48,-369 1195.67,-318.73 1285.86,-315.2"/>
<polygon fill="black" stroke="black" points="1286.07,-318.69 1296,-315 1285.93,-311.69 1286.07,-318.69"/>
</g>
<!-- ST_BOOT_COMMON_PROVISIONING_SERVER_URL -->
<g id="node7" class="node">
<title>ST_BOOT_COMMON_PROVISIONING_SERVER_URL</title>
<ellipse fill="none" stroke="black" cx="1512" cy="-207" rx="216" ry="18"/>
<text text-anchor="middle" x="1512" y="-203.3" font-family="Times,serif" font-size="14.00">ST_BOOT_COMMON_PROVISIONING_SERVER_URL</text>
</g>
<!-- build_host_config.sh&#45;&gt;ST_BOOT_COMMON_PROVISIONING_SERVER_URL -->
<g id="edge6" class="edge">
<title>build_host_config.sh:e&#45;&gt;ST_BOOT_COMMON_PROVISIONING_SERVER_URL:w</title>
<path fill="none" stroke="black" d="M1080,-369C1196.48,-369 1177.28,-216.35 1285.82,-207.41"/>
<polygon fill="black" stroke="black" points="1286.15,-210.9 1296,-207 1285.87,-203.9 1286.15,-210.9"/>
</g>
<!-- ST_BOOT_COMMON_DATA_PARTITION_SIZE -->
<g id="node10" class="node">
<title>ST_BOOT_COMMON_DATA_PARTITION_SIZE</title>
<ellipse fill="none" stroke="black" cx="1512" cy="-99" rx="216" ry="18"/>
<text text-anchor="middle" x="1512" y="-95.3" font-family="Times,serif" font-size="14.00">ST_BOOT_COMMON_DATA_PARTITION_SIZE</text>
</g>
<!-- build_data_filesystem.sh&#45;&gt;ST_BOOT_COMMON_DATA_PARTITION_SIZE -->
<g id="edge9" class="edge">
<title>build_data_filesystem.sh:e&#45;&gt;ST_BOOT_COMMON_DATA_PARTITION_SIZE:w</title>
<path fill="none" stroke="black" d="M1080,-126C1173.25,-126 1197.53,-100.92 1285.8,-99.1"/>
<polygon fill="black" stroke="black" points="1286.04,-102.6 1296,-99 1285.97,-95.6 1286.04,-102.6"/>
</g>
</g>
</svg>
