<?xml version="1.0" encoding="UTF-8" standalone="no"?>
<!DOCTYPE svg PUBLIC "-//W3C//DTD SVG 1.1//EN"
 "http://www.w3.org/Graphics/SVG/1.1/DTD/svg11.dtd">
<!-- Generated by graphviz version 2.43.0 (0)
 -->
<!-- Title: make_mbr_bootloader Pages: 1 -->
<svg width="8504pt" height="881pt"
 viewBox="0.00 0.00 8504.00 881.00" xmlns="http://www.w3.org/2000/svg" xmlns:xlink="http://www.w3.org/1999/xlink">
<g id="graph0" class="graph" transform="scale(1 1) rotate(0) translate(4 877)">
<title>make_mbr_bootloader</title>
<polygon fill="white" stroke="transparent" points="-4,4 -4,-877 8500,-877 8500,4 -4,4"/>
<!-- /stboot&#45;installation/common/build_security_config.sh -->
<g id="node1" class="node">
<title>/stboot&#45;installation/common/build_security_config.sh</title>
<polygon fill="indianred" stroke="black" points="1368,-144 792,-144 792,-108 1368,-108 1368,-144"/>
<text text-anchor="middle" x="1080" y="-122.3" font-family="Times,serif" font-size="14.00">/stboot&#45;installation/common/build_security_config.sh</text>
</g>
<!-- /out/stboot&#45;installation/security_configuration.json -->
<g id="node5" class="node">
<title>/out/stboot&#45;installation/security_configuration.json</title>
<ellipse fill="none" stroke="black" cx="1872" cy="-126" rx="288" ry="18"/>
<text text-anchor="middle" x="1872" y="-122.3" font-family="Times,serif" font-size="14.00">/out/stboot&#45;installation/security_configuration.json</text>
</g>
<!-- /stboot&#45;installation/common/build_security_config.sh&#45;&gt;/out/stboot&#45;installation/security_configuration.json -->
<g id="edge4" class="edge">
<title>/stboot&#45;installation/common/build_security_config.sh:e&#45;&gt;/out/stboot&#45;installation/security_configuration.json:w</title>
<path fill="none" stroke="black" d="M1368,-126C1460.53,-126 1486.17,-126 1573.87,-126"/>
<polygon fill="black" stroke="black" points="1574,-129.5 1584,-126 1574,-122.5 1574,-129.5"/>
</g>
<!-- CONFIG: ${ST_BOOT_COMMON_ROOTCERT_FINGERPRINT_FILE} -->
<g id="node2" class="node">
<title>CONFIG: ${ST_BOOT_COMMON_ROOTCERT_FINGERPRINT_FILE}</title>
<ellipse fill="none" stroke="black" cx="288" cy="-234" rx="288" ry="18"/>
<text text-anchor="middle" x="288" y="-230.3" font-family="Times,serif" font-size="14.00">CONFIG: ${ST_BOOT_COMMON_ROOTCERT_FINGERPRINT_FILE}</text>
</g>
<!-- CONFIG: ${ST_BOOT_COMMON_ROOTCERT_FINGERPRINT_FILE}&#45;&gt;/stboot&#45;installation/common/build_security_config.sh -->
<g id="edge1" class="edge">
<title>CONFIG: ${ST_BOOT_COMMON_ROOTCERT_FINGERPRINT_FILE}:e&#45;&gt;/stboot&#45;installation/common/build_security_config.sh:w</title>
<path fill="none" stroke="black" d="M576,-234C679.87,-234 684.47,-132.85 781.95,-126.33"/>
<polygon fill="black" stroke="black" points="782.12,-129.83 792,-126 781.89,-122.83 782.12,-129.83"/>
</g>
<!-- CONFIG: ${ST_BOOT_COMMON_NUM_SIGNATURES} -->
<g id="node3" class="node">
<title>CONFIG: ${ST_BOOT_COMMON_NUM_SIGNATURES}</title>
<ellipse fill="none" stroke="black" cx="288" cy="-126" rx="288" ry="18"/>
<text text-anchor="middle" x="288" y="-122.3" font-family="Times,serif" font-size="14.00">CONFIG: ${ST_BOOT_COMMON_NUM_SIGNATURES}</text>
</g>
<!-- CONFIG: ${ST_BOOT_COMMON_NUM_SIGNATURES}&#45;&gt;/stboot&#45;installation/common/build_security_config.sh -->
<g id="edge2" class="edge">
<title>CONFIG: ${ST_BOOT_COMMON_NUM_SIGNATURES}:e&#45;&gt;/stboot&#45;installation/common/build_security_config.sh:w</title>
<path fill="none" stroke="black" d="M576,-126C668.53,-126 694.17,-126 781.87,-126"/>
<polygon fill="black" stroke="black" points="782,-129.5 792,-126 782,-122.5 782,-129.5"/>
</g>
<!-- CONFIG: ${ST_BOOT_COMMON_BOOT_MODE} -->
<g id="node4" class="node">
<title>CONFIG: ${ST_BOOT_COMMON_BOOT_MODE}</title>
<ellipse fill="none" stroke="black" cx="288" cy="-18" rx="288" ry="18"/>
<text text-anchor="middle" x="288" y="-14.3" font-family="Times,serif" font-size="14.00">CONFIG: ${ST_BOOT_COMMON_BOOT_MODE}</text>
</g>
<!-- CONFIG: ${ST_BOOT_COMMON_BOOT_MODE}&#45;&gt;/stboot&#45;installation/common/build_security_config.sh -->
<g id="edge3" class="edge">
<title>CONFIG: ${ST_BOOT_COMMON_BOOT_MODE}:e&#45;&gt;/stboot&#45;installation/common/build_security_config.sh:w</title>
<path fill="none" stroke="black" d="M576,-18C679.87,-18 684.47,-119.15 781.95,-125.67"/>
<polygon fill="black" stroke="black" points="781.89,-129.17 792,-126 782.12,-122.17 781.89,-129.17"/>
</g>
<!-- /stboot&#45;installation/common/build_initramfs.sh -->
<g id="node6" class="node">
<title>/stboot&#45;installation/common/build_initramfs.sh</title>
<polygon fill="indianred" stroke="black" points="2952,-360 2376,-360 2376,-324 2952,-324 2952,-360"/>
<text text-anchor="middle" x="2664" y="-338.3" font-family="Times,serif" font-size="14.00">/stboot&#45;installation/common/build_initramfs.sh</text>
</g>
<!-- /out/stboot&#45;installation/security_configuration.json&#45;&gt;/stboot&#45;installation/common/build_initramfs.sh -->
<g id="edge5" class="edge">
<title>/out/stboot&#45;installation/security_configuration.json:e&#45;&gt;/stboot&#45;installation/common/build_initramfs.sh:w</title>
<path fill="none" stroke="black" d="M2160,-126C2292.18,-126 2243.03,-330.76 2365.65,-341.56"/>
<polygon fill="black" stroke="black" points="2365.86,-345.07 2376,-342 2366.16,-338.08 2365.86,-345.07"/>
</g>
<!-- /out/stboot&#45;installation/initramfs&#45;linuxboot.cpio.gz -->
<g id="node10" class="node">
<title>/out/stboot&#45;installation/initramfs&#45;linuxboot.cpio.gz</title>
<ellipse fill="none" stroke="black" cx="3456" cy="-342" rx="288" ry="18"/>
<text text-anchor="middle" x="3456" y="-338.3" font-family="Times,serif" font-size="14.00">/out/stboot&#45;installation/initramfs&#45;linuxboot.cpio.gz</text>
</g>
<!-- /stboot&#45;installation/common/build_initramfs.sh&#45;&gt;/out/stboot&#45;installation/initramfs&#45;linuxboot.cpio.gz -->
<g id="edge9" class="edge">
<title>/stboot&#45;installation/common/build_initramfs.sh:e&#45;&gt;/out/stboot&#45;installation/initramfs&#45;linuxboot.cpio.gz:w</title>
<path fill="none" stroke="black" d="M2952,-342C3044.53,-342 3070.17,-342 3157.87,-342"/>
<polygon fill="black" stroke="black" points="3158,-345.5 3168,-342 3158,-338.5 3158,-345.5"/>
</g>
<!-- CONFIG: ${ST_BOOT_COMMON_LINUXBOOT_VARIANT} -->
<g id="node7" class="node">
<title>CONFIG: ${ST_BOOT_COMMON_LINUXBOOT_VARIANT}</title>
<ellipse fill="none" stroke="black" cx="1872" cy="-450" rx="288" ry="18"/>
<text text-anchor="middle" x="1872" y="-446.3" font-family="Times,serif" font-size="14.00">CONFIG: ${ST_BOOT_COMMON_LINUXBOOT_VARIANT}</text>
</g>
<!-- CONFIG: ${ST_BOOT_COMMON_LINUXBOOT_VARIANT}&#45;&gt;/stboot&#45;installation/common/build_initramfs.sh -->
<g id="edge6" class="edge">
<title>CONFIG: ${ST_BOOT_COMMON_LINUXBOOT_VARIANT}:e&#45;&gt;/stboot&#45;installation/common/build_initramfs.sh:w</title>
<path fill="none" stroke="black" d="M2160,-450C2263.87,-450 2268.47,-348.85 2365.95,-342.33"/>
<polygon fill="black" stroke="black" points="2366.12,-345.83 2376,-342 2365.89,-338.83 2366.12,-345.83"/>
</g>
<!-- &quot;KEYS&quot; -->
<g id="node8" class="node">
<title>&quot;KEYS&quot;</title>
<ellipse fill="none" stroke="black" cx="1872" cy="-342" rx="288" ry="18"/>
<text text-anchor="middle" x="1872" y="-338.3" font-family="Times,serif" font-size="14.00">&quot;KEYS&quot;</text>
</g>
<!-- &quot;KEYS&quot;&#45;&gt;/stboot&#45;installation/common/build_initramfs.sh -->
<g id="edge7" class="edge">
<title>&quot;KEYS&quot;:e&#45;&gt;/stboot&#45;installation/common/build_initramfs.sh:w</title>
<path fill="none" stroke="black" d="M2160,-342C2252.53,-342 2278.17,-342 2365.87,-342"/>
<polygon fill="black" stroke="black" points="2366,-345.5 2376,-342 2366,-338.5 2366,-345.5"/>
</g>
<!-- /stboot&#45;installation/initramfs&#45;includes/https_roots.pem -->
<g id="node9" class="node">
<title>/stboot&#45;installation/initramfs&#45;includes/https_roots.pem</title>
<ellipse fill="none" stroke="black" cx="1872" cy="-234" rx="288" ry="18"/>
<text text-anchor="middle" x="1872" y="-230.3" font-family="Times,serif" font-size="14.00">/stboot&#45;installation/initramfs&#45;includes/https_roots.pem</text>
</g>
<!-- /stboot&#45;installation/initramfs&#45;includes/https_roots.pem&#45;&gt;/stboot&#45;installation/common/build_initramfs.sh -->
<g id="edge8" class="edge">
<title>/stboot&#45;installation/initramfs&#45;includes/https_roots.pem:e&#45;&gt;/stboot&#45;installation/common/build_initramfs.sh:w</title>
<path fill="none" stroke="black" d="M2160,-234C2263.87,-234 2268.47,-335.15 2365.95,-341.67"/>
<polygon fill="black" stroke="black" points="2365.89,-345.17 2376,-342 2366.12,-338.17 2365.89,-345.17"/>
</g>
<!-- /stboot&#45;installation/common/build_kernel.sh -->
<g id="node15" class="node">
<title>/stboot&#45;installation/common/build_kernel.sh</title>
<polygon fill="indianred" stroke="black" points="4536,-481 3960,-481 3960,-445 4536,-445 4536,-481"/>
<text text-anchor="middle" x="4248" y="-459.3" font-family="Times,serif" font-size="14.00">/stboot&#45;installation/common/build_kernel.sh</text>
</g>
<!-- /out/stboot&#45;installation/initramfs&#45;linuxboot.cpio.gz&#45;&gt;/stboot&#45;installation/common/build_kernel.sh -->
<g id="edge13" class="edge">
<title>/out/stboot&#45;installation/initramfs&#45;linuxboot.cpio.gz:e&#45;&gt;/stboot&#45;installation/common/build_kernel.sh:w</title>
<path fill="none" stroke="black" d="M3744,-342C3850.49,-342 3850.11,-455.33 3949.71,-462.63"/>
<polygon fill="black" stroke="black" points="3949.88,-466.14 3960,-463 3950.13,-459.14 3949.88,-466.14"/>
</g>
<!-- CONFIG: ${ST_BOOT_EFI_KERNEL_CONFIG} -->
<g id="node11" class="node">
<title>CONFIG: ${ST_BOOT_EFI_KERNEL_CONFIG}</title>
<ellipse fill="none" stroke="black" cx="1872" cy="-666" rx="288" ry="18"/>
<text text-anchor="middle" x="1872" y="-662.3" font-family="Times,serif" font-size="14.00">CONFIG: ${ST_BOOT_EFI_KERNEL_CONFIG}</text>
</g>
<!-- /stboot&#45;installation/efi&#45;application/build_efi_kernel_config.sh -->
<g id="node13" class="node">
<title>/stboot&#45;installation/efi&#45;application/build_efi_kernel_config.sh</title>
<polygon fill="lightgrey" stroke="black" points="2952,-576 2376,-576 2376,-540 2952,-540 2952,-576"/>
<text text-anchor="middle" x="2664" y="-554.3" font-family="Times,serif" font-size="14.00">/stboot&#45;installation/efi&#45;application/build_efi_kernel_config.sh</text>
</g>
<!-- CONFIG: ${ST_BOOT_EFI_KERNEL_CONFIG}&#45;&gt;/stboot&#45;installation/efi&#45;application/build_efi_kernel_config.sh -->
<g id="edge10" class="edge">
<title>CONFIG: ${ST_BOOT_EFI_KERNEL_CONFIG}:e&#45;&gt;/stboot&#45;installation/efi&#45;application/build_efi_kernel_config.sh:w</title>
<path fill="none" stroke="black" d="M2160,-666C2263.87,-666 2268.47,-564.85 2365.95,-558.33"/>
<polygon fill="black" stroke="black" points="2366.12,-561.83 2376,-558 2365.89,-554.83 2366.12,-561.83"/>
</g>
<!-- CONFIG: ${ST_BOOT_COMMON_LINUXBOOT_CMDLINE} -->
<g id="node12" class="node">
<title>CONFIG: ${ST_BOOT_COMMON_LINUXBOOT_CMDLINE}</title>
<ellipse fill="none" stroke="black" cx="1872" cy="-558" rx="288" ry="18"/>
<text text-anchor="middle" x="1872" y="-554.3" font-family="Times,serif" font-size="14.00">CONFIG: ${ST_BOOT_COMMON_LINUXBOOT_CMDLINE}</text>
</g>
<!-- CONFIG: ${ST_BOOT_COMMON_LINUXBOOT_CMDLINE}&#45;&gt;/stboot&#45;installation/efi&#45;application/build_efi_kernel_config.sh -->
<g id="edge11" class="edge">
<title>CONFIG: ${ST_BOOT_COMMON_LINUXBOOT_CMDLINE}:e&#45;&gt;/stboot&#45;installation/efi&#45;application/build_efi_kernel_config.sh:w</title>
<path fill="none" stroke="black" d="M2160,-558C2252.53,-558 2278.17,-558 2365.87,-558"/>
<polygon fill="black" stroke="black" points="2366,-561.5 2376,-558 2366,-554.5 2366,-561.5"/>
</g>
<!-- /out/stboot&#45;installation/st_boot_efi_kernel.config -->
<g id="node14" class="node">
<title>/out/stboot&#45;installation/st_boot_efi_kernel.config</title>
<ellipse fill="none" stroke="black" cx="3456" cy="-558" rx="288" ry="18"/>
<text text-anchor="middle" x="3456" y="-554.3" font-family="Times,serif" font-size="14.00">/out/stboot&#45;installation/st_boot_efi_kernel.config</text>
</g>
<!-- /stboot&#45;installation/efi&#45;application/build_efi_kernel_config.sh&#45;&gt;/out/stboot&#45;installation/st_boot_efi_kernel.config -->
<g id="edge12" class="edge">
<title>/stboot&#45;installation/efi&#45;application/build_efi_kernel_config.sh:e&#45;&gt;/out/stboot&#45;installation/st_boot_efi_kernel.config:w</title>
<path fill="none" stroke="black" d="M2952,-558C3044.53,-558 3070.17,-558 3157.87,-558"/>
<polygon fill="black" stroke="black" points="3158,-561.5 3168,-558 3158,-554.5 3158,-561.5"/>
</g>
<!-- /out/stboot&#45;installation/st_boot_efi_kernel.config&#45;&gt;/stboot&#45;installation/common/build_kernel.sh -->
<g id="edge14" class="edge">
<title>/out/stboot&#45;installation/st_boot_efi_kernel.config:e&#45;&gt;/stboot&#45;installation/common/build_kernel.sh:w</title>
<path fill="none" stroke="black" d="M3744,-558C3845.39,-558 3854.6,-469.2 3949.87,-463.31"/>
<polygon fill="black" stroke="black" points="3950.11,-466.8 3960,-463 3949.9,-459.8 3950.11,-466.8"/>
</g>
<!-- /out/stboot&#45;installation/efi&#45;application/linuxboot.efi -->
<g id="node17" class="node">
<title>/out/stboot&#45;installation/efi&#45;application/linuxboot.efi</title>
<ellipse fill="none" stroke="black" cx="5040" cy="-477" rx="288" ry="18"/>
<text text-anchor="middle" x="5040" y="-473.3" font-family="Times,serif" font-size="14.00">/out/stboot&#45;installation/efi&#45;application/linuxboot.efi</text>
</g>
<!-- /stboot&#45;installation/common/build_kernel.sh&#45;&gt;/out/stboot&#45;installation/efi&#45;application/linuxboot.efi -->
<g id="edge16" class="edge">
<title>/stboot&#45;installation/common/build_kernel.sh:e&#45;&gt;/out/stboot&#45;installation/efi&#45;application/linuxboot.efi:w</title>
<path fill="none" stroke="black" d="M4536,-463C4628.73,-463 4654,-476.01 4741.85,-476.95"/>
<polygon fill="black" stroke="black" points="4741.98,-480.45 4752,-477 4742.02,-473.45 4741.98,-480.45"/>
</g>
<!-- CONFIG: ${ST_BOOT_EFI_KERNEL_VERSION} -->
<g id="node16" class="node">
<title>CONFIG: ${ST_BOOT_EFI_KERNEL_VERSION}</title>
<ellipse fill="none" stroke="black" cx="3456" cy="-450" rx="288" ry="18"/>
<text text-anchor="middle" x="3456" y="-446.3" font-family="Times,serif" font-size="14.00">CONFIG: ${ST_BOOT_EFI_KERNEL_VERSION}</text>
</g>
<!-- CONFIG: ${ST_BOOT_EFI_KERNEL_VERSION}&#45;&gt;/stboot&#45;installation/common/build_kernel.sh -->
<g id="edge15" class="edge">
<title>CONFIG: ${ST_BOOT_EFI_KERNEL_VERSION}:e&#45;&gt;/stboot&#45;installation/common/build_kernel.sh:w</title>
<path fill="none" stroke="black" d="M3744,-450C3836.7,-450 3862.02,-462.08 3949.85,-462.95"/>
<polygon fill="black" stroke="black" points="3949.98,-466.45 3960,-463 3950.02,-459.45 3949.98,-466.45"/>
</g>
<!-- /stboot&#45;installation/efi&#45;application/build_boot_filesystem.sh -->
<g id="node22" class="node">
<title>/stboot&#45;installation/efi&#45;application/build_boot_filesystem.sh</title>
<polygon fill="lightgrey" stroke="black" points="6120,-657 5544,-657 5544,-621 6120,-621 6120,-657"/>
<text text-anchor="middle" x="5832" y="-635.3" font-family="Times,serif" font-size="14.00">/stboot&#45;installation/efi&#45;application/build_boot_filesystem.sh</text>
</g>
<!-- /out/stboot&#45;installation/efi&#45;application/linuxboot.efi&#45;&gt;/stboot&#45;installation/efi&#45;application/build_boot_filesystem.sh -->
<g id="edge20" class="edge">
<title>/out/stboot&#45;installation/efi&#45;application/linuxboot.efi:e&#45;&gt;/stboot&#45;installation/efi&#45;application/build_boot_filesystem.sh:w</title>
<path fill="none" stroke="black" d="M5328,-477C5444.48,-477 5425.28,-629.65 5533.82,-638.59"/>
<polygon fill="black" stroke="black" points="5533.87,-642.1 5544,-639 5534.15,-635.1 5533.87,-642.1"/>
</g>
<!-- /stboot&#45;installation/common/build_host_config.sh -->
<g id="node18" class="node">
<title>/stboot&#45;installation/common/build_host_config.sh</title>
<polygon fill="indianred" stroke="black" points="4536,-684 3960,-684 3960,-648 4536,-648 4536,-684"/>
<text text-anchor="middle" x="4248" y="-662.3" font-family="Times,serif" font-size="14.00">/stboot&#45;installation/common/build_host_config.sh</text>
</g>
<!-- /out/stboot&#45;installation/host_configuration.json -->
<g id="node21" class="node">
<title>/out/stboot&#45;installation/host_configuration.json</title>
<ellipse fill="none" stroke="black" cx="5040" cy="-639" rx="288" ry="18"/>
<text text-anchor="middle" x="5040" y="-635.3" font-family="Times,serif" font-size="14.00">/out/stboot&#45;installation/host_configuration.json</text>
</g>
<!-- /stboot&#45;installation/common/build_host_config.sh&#45;&gt;/out/stboot&#45;installation/host_configuration.json -->
<g id="edge19" class="edge">
<title>/stboot&#45;installation/common/build_host_config.sh:e&#45;&gt;/out/stboot&#45;installation/host_configuration.json:w</title>
<path fill="none" stroke="black" d="M4536,-666C4629.25,-666 4653.53,-640.92 4741.8,-639.1"/>
<polygon fill="black" stroke="black" points="4742.04,-642.6 4752,-639 4741.97,-635.6 4742.04,-642.6"/>
</g>
<!-- CONFIG: ${ST_BOOT_COMMON_NETWORK_HOST_*} -->
<g id="node19" class="node">
<title>CONFIG: ${ST_BOOT_COMMON_NETWORK_HOST_*}</title>
<ellipse fill="none" stroke="black" cx="3456" cy="-774" rx="288" ry="18"/>
<text text-anchor="middle" x="3456" y="-770.3" font-family="Times,serif" font-size="14.00">CONFIG: ${ST_BOOT_COMMON_NETWORK_HOST_*}</text>
</g>
<!-- CONFIG: ${ST_BOOT_COMMON_NETWORK_HOST_*}&#45;&gt;/stboot&#45;installation/common/build_host_config.sh -->
<g id="edge17" class="edge">
<title>CONFIG: ${ST_BOOT_COMMON_NETWORK_HOST_*}:e&#45;&gt;/stboot&#45;installation/common/build_host_config.sh:w</title>
<path fill="none" stroke="black" d="M3744,-774C3847.87,-774 3852.47,-672.85 3949.95,-666.33"/>
<polygon fill="black" stroke="black" points="3950.12,-669.83 3960,-666 3949.89,-662.83 3950.12,-669.83"/>
</g>
<!-- CONFIG: ${ST_BOOT_COMMON_PROVISIONING_SERVER_URL} -->
<g id="node20" class="node">
<title>CONFIG: ${ST_BOOT_COMMON_PROVISIONING_SERVER_URL}</title>
<ellipse fill="none" stroke="black" cx="3456" cy="-666" rx="288" ry="18"/>
<text text-anchor="middle" x="3456" y="-662.3" font-family="Times,serif" font-size="14.00">CONFIG: ${ST_BOOT_COMMON_PROVISIONING_SERVER_URL}</text>
</g>
<!-- CONFIG: ${ST_BOOT_COMMON_PROVISIONING_SERVER_URL}&#45;&gt;/stboot&#45;installation/common/build_host_config.sh -->
<g id="edge18" class="edge">
<title>CONFIG: ${ST_BOOT_COMMON_PROVISIONING_SERVER_URL}:e&#45;&gt;/stboot&#45;installation/common/build_host_config.sh:w</title>
<path fill="none" stroke="black" d="M3744,-666C3836.53,-666 3862.17,-666 3949.87,-666"/>
<polygon fill="black" stroke="black" points="3950,-669.5 3960,-666 3950,-662.5 3950,-669.5"/>
</g>
<!-- /out/stboot&#45;installation/host_configuration.json&#45;&gt;/stboot&#45;installation/efi&#45;application/build_boot_filesystem.sh -->
<g id="edge21" class="edge">
<title>/out/stboot&#45;installation/host_configuration.json:e&#45;&gt;/stboot&#45;installation/efi&#45;application/build_boot_filesystem.sh:w</title>
<path fill="none" stroke="black" d="M5328,-639C5420.53,-639 5446.17,-639 5533.87,-639"/>
<polygon fill="black" stroke="black" points="5534,-642.5 5544,-639 5534,-635.5 5534,-642.5"/>
</g>
<!-- /out/stboot&#45;installation/efi&#45;application/boot_partition.vfat -->
<g id="node23" class="node">
<title>/out/stboot&#45;installation/efi&#45;application/boot_partition.vfat</title>
<ellipse fill="none" stroke="black" cx="6624" cy="-639" rx="288" ry="18"/>
<text text-anchor="middle" x="6624" y="-635.3" font-family="Times,serif" font-size="14.00">/out/stboot&#45;installation/efi&#45;application/boot_partition.vfat</text>
</g>
<!-- /stboot&#45;installation/efi&#45;application/build_boot_filesystem.sh&#45;&gt;/out/stboot&#45;installation/efi&#45;application/boot_partition.vfat -->
<g id="edge22" class="edge">
<title>/stboot&#45;installation/efi&#45;application/build_boot_filesystem.sh:e&#45;&gt;/out/stboot&#45;installation/efi&#45;application/boot_partition.vfat:w</title>
<path fill="none" stroke="black" d="M6120,-639C6212.53,-639 6238.17,-639 6325.87,-639"/>
<polygon fill="black" stroke="black" points="6326,-642.5 6336,-639 6326,-635.5 6326,-642.5"/>
</g>
<!-- /stboot&#45;installation/efi&#45;application/build_image.sh -->
<g id="node28" class="node">
<title>/stboot&#45;installation/efi&#45;application/build_image.sh</title>
<polygon fill="lightgrey" stroke="black" points="7704,-711 7128,-711 7128,-675 7704,-675 7704,-711"/>
<text text-anchor="middle" x="7416" y="-689.3" font-family="Times,serif" font-size="14.00">/stboot&#45;installation/efi&#45;application/build_image.sh</text>
</g>
<!-- /out/stboot&#45;installation/efi&#45;application/boot_partition.vfat&#45;&gt;/stboot&#45;installation/efi&#45;application/build_image.sh -->
<g id="edge26" class="edge">
<title>/out/stboot&#45;installation/efi&#45;application/boot_partition.vfat:e&#45;&gt;/stboot&#45;installation/efi&#45;application/build_image.sh:w</title>
<path fill="none" stroke="black" d="M6912,-639C7007.48,-639 7027.67,-689.27 7117.86,-692.8"/>
<polygon fill="black" stroke="black" points="7117.93,-696.31 7128,-693 7118.07,-689.31 7117.93,-696.31"/>
</g>
<!-- /stboot&#45;installation/common/build_data_filesystem.sh -->
<g id="node24" class="node">
<title>/stboot&#45;installation/common/build_data_filesystem.sh</title>
<polygon fill="indianred" stroke="black" points="6120,-765 5544,-765 5544,-729 6120,-729 6120,-765"/>
<text text-anchor="middle" x="5832" y="-743.3" font-family="Times,serif" font-size="14.00">/stboot&#45;installation/common/build_data_filesystem.sh</text>
</g>
<!-- /out/stboot&#45;installation/data_partition.ext4 -->
<g id="node27" class="node">
<title>/out/stboot&#45;installation/data_partition.ext4</title>
<ellipse fill="none" stroke="black" cx="6624" cy="-747" rx="288" ry="18"/>
<text text-anchor="middle" x="6624" y="-743.3" font-family="Times,serif" font-size="14.00">/out/stboot&#45;installation/data_partition.ext4</text>
</g>
<!-- /stboot&#45;installation/common/build_data_filesystem.sh&#45;&gt;/out/stboot&#45;installation/data_partition.ext4 -->
<g id="edge25" class="edge">
<title>/stboot&#45;installation/common/build_data_filesystem.sh:e&#45;&gt;/out/stboot&#45;installation/data_partition.ext4:w</title>
<path fill="none" stroke="black" d="M6120,-747C6212.53,-747 6238.17,-747 6325.87,-747"/>
<polygon fill="black" stroke="black" points="6326,-750.5 6336,-747 6326,-743.5 6326,-750.5"/>
</g>
<!-- /out/os&#45;packages/\* -->
<g id="node25" class="node">
<title>/out/os&#45;packages/\*</title>
<ellipse fill="none" stroke="black" cx="5040" cy="-855" rx="288" ry="18"/>
<text text-anchor="middle" x="5040" y="-851.3" font-family="Times,serif" font-size="14.00">/out/os&#45;packages/*</text>
</g>
<!-- /out/os&#45;packages/\*&#45;&gt;/stboot&#45;installation/common/build_data_filesystem.sh -->
<g id="edge23" class="edge">
<title>/out/os&#45;packages/\*:e&#45;&gt;/stboot&#45;installation/common/build_data_filesystem.sh:w</title>
<path fill="none" stroke="black" d="M5328,-855C5431.87,-855 5436.47,-753.85 5533.95,-747.33"/>
<polygon fill="black" stroke="black" points="5534.12,-750.83 5544,-747 5533.89,-743.83 5534.12,-750.83"/>
</g>
<!-- CONFIG: ${ST_BOOT_COMMON_DATA_PARTITION_SIZE} -->
<g id="node26" class="node">
<title>CONFIG: ${ST_BOOT_COMMON_DATA_PARTITION_SIZE}</title>
<ellipse fill="none" stroke="black" cx="5040" cy="-747" rx="288" ry="18"/>
<text text-anchor="middle" x="5040" y="-743.3" font-family="Times,serif" font-size="14.00">CONFIG: ${ST_BOOT_COMMON_DATA_PARTITION_SIZE}</text>
</g>
<!-- CONFIG: ${ST_BOOT_COMMON_DATA_PARTITION_SIZE}&#45;&gt;/stboot&#45;installation/common/build_data_filesystem.sh -->
<g id="edge24" class="edge">
<title>CONFIG: ${ST_BOOT_COMMON_DATA_PARTITION_SIZE}:e&#45;&gt;/stboot&#45;installation/common/build_data_filesystem.sh:w</title>
<path fill="none" stroke="black" d="M5328,-747C5420.53,-747 5446.17,-747 5533.87,-747"/>
<polygon fill="black" stroke="black" points="5534,-750.5 5544,-747 5534,-743.5 5534,-750.5"/>
</g>
<!-- /out/stboot&#45;installation/data_partition.ext4&#45;&gt;/stboot&#45;installation/efi&#45;application/build_image.sh -->
<g id="edge27" class="edge">
<title>/out/stboot&#45;installation/data_partition.ext4:e&#45;&gt;/stboot&#45;installation/efi&#45;application/build_image.sh:w</title>
<path fill="none" stroke="black" d="M6912,-747C7007.48,-747 7027.67,-696.73 7117.86,-693.2"/>
<polygon fill="black" stroke="black" points="7118.07,-696.69 7128,-693 7117.93,-689.69 7118.07,-696.69"/>
</g>
<!-- /out/stboot&#45;installation/efi&#45;application/stboot_efi_installation.img -->
<g id="node29" class="node">
<title>/out/stboot&#45;installation/efi&#45;application/stboot_efi_installation.img</title>
<ellipse fill="none" stroke="black" cx="8208" cy="-693" rx="288" ry="18"/>
<text text-anchor="middle" x="8208" y="-689.3" font-family="Times,serif" font-size="14.00">/out/stboot&#45;installation/efi&#45;application/stboot_efi_installation.img</text>
</g>
<!-- /stboot&#45;installation/efi&#45;application/build_image.sh&#45;&gt;/out/stboot&#45;installation/efi&#45;application/stboot_efi_installation.img -->
<g id="edge28" class="edge">
<title>/stboot&#45;installation/efi&#45;application/build_image.sh:e&#45;&gt;/out/stboot&#45;installation/efi&#45;application/stboot_efi_installation.img:w</title>
<path fill="none" stroke="black" d="M7704,-693C7796.53,-693 7822.17,-693 7909.87,-693"/>
<polygon fill="black" stroke="black" points="7910,-696.5 7920,-693 7910,-689.5 7910,-696.5"/>
</g>
</g>
</svg>
