<?xml version="1.0" encoding="UTF-8" standalone="no"?>
<!DOCTYPE svg PUBLIC "-//W3C//DTD SVG 1.1//EN"
 "http://www.w3.org/Graphics/SVG/1.1/DTD/svg11.dtd">
<!-- Generated by graphviz version 2.43.0 (0)
 -->
<!-- Title: build_mbr_kernel_config Pages: 1 -->
<svg width="8504pt" height="1016pt"
 viewBox="0.00 0.00 8504.00 1016.00" xmlns="http://www.w3.org/2000/svg" xmlns:xlink="http://www.w3.org/1999/xlink">
<g id="graph0" class="graph" transform="scale(1 1) rotate(0) translate(4 1012)">
<title>build_mbr_kernel_config</title>
<polygon fill="white" stroke="transparent" points="-4,4 -4,-1012 8500,-1012 8500,4 -4,4"/>
<!-- /stboot&#45;installation/common/build_security_config.sh -->
<g id="node1" class="node">
<title>/stboot&#45;installation/common/build_security_config.sh</title>
<polygon fill="indianred" stroke="black" points="1368,-144 792,-144 792,-108 1368,-108 1368,-144"/>
<text text-anchor="middle" x="1080" y="-122.3" font-family="Times,serif" font-size="14.00">/stboot&#45;installation/common/build_security_config.sh</text>
</g>
<!-- /out/stboot&#45;installation/security_configuration.json -->
<g id="node5" class="node">
<title>/out/stboot&#45;installation/security_configuration.json</title>
<ellipse fill="none" stroke="black" cx="1872" cy="-126" rx="288" ry="18"/>
<text text-anchor="middle" x="1872" y="-122.3" font-family="Times,serif" font-size="14.00">/out/stboot&#45;installation/security_configuration.json</text>
</g>
<!-- /stboot&#45;installation/common/build_security_config.sh&#45;&gt;/out/stboot&#45;installation/security_configuration.json -->
<g id="edge4" class="edge">
<title>/stboot&#45;installation/common/build_security_config.sh:e&#45;&gt;/out/stboot&#45;installation/security_configuration.json:w</title>
<path fill="none" stroke="black" d="M1368,-126C1460.53,-126 1486.17,-126 1573.87,-126"/>
<polygon fill="black" stroke="black" points="1574,-129.5 1584,-126 1574,-122.5 1574,-129.5"/>
</g>
<!-- CONFIG: ${ST_BOOT_COMMON_ROOTCERT_FINGERPRINT_FILE} -->
<g id="node2" class="node">
<title>CONFIG: ${ST_BOOT_COMMON_ROOTCERT_FINGERPRINT_FILE}</title>
<ellipse fill="none" stroke="black" cx="288" cy="-234" rx="288" ry="18"/>
<text text-anchor="middle" x="288" y="-230.3" font-family="Times,serif" font-size="14.00">CONFIG: ${ST_BOOT_COMMON_ROOTCERT_FINGERPRINT_FILE}</text>
</g>
<!-- CONFIG: ${ST_BOOT_COMMON_ROOTCERT_FINGERPRINT_FILE}&#45;&gt;/stboot&#45;installation/common/build_security_config.sh -->
<g id="edge1" class="edge">
<title>CONFIG: ${ST_BOOT_COMMON_ROOTCERT_FINGERPRINT_FILE}:e&#45;&gt;/stboot&#45;installation/common/build_security_config.sh:w</title>
<path fill="none" stroke="black" d="M576,-234C679.87,-234 684.47,-132.85 781.95,-126.33"/>
<polygon fill="black" stroke="black" points="782.12,-129.83 792,-126 781.89,-122.83 782.12,-129.83"/>
</g>
<!-- CONFIG: ${ST_BOOT_COMMON_NUM_SIGNATURES} -->
<g id="node3" class="node">
<title>CONFIG: ${ST_BOOT_COMMON_NUM_SIGNATURES}</title>
<ellipse fill="none" stroke="black" cx="288" cy="-126" rx="288" ry="18"/>
<text text-anchor="middle" x="288" y="-122.3" font-family="Times,serif" font-size="14.00">CONFIG: ${ST_BOOT_COMMON_NUM_SIGNATURES}</text>
</g>
<!-- CONFIG: ${ST_BOOT_COMMON_NUM_SIGNATURES}&#45;&gt;/stboot&#45;installation/common/build_security_config.sh -->
<g id="edge2" class="edge">
<title>CONFIG: ${ST_BOOT_COMMON_NUM_SIGNATURES}:e&#45;&gt;/stboot&#45;installation/common/build_security_config.sh:w</title>
<path fill="none" stroke="black" d="M576,-126C668.53,-126 694.17,-126 781.87,-126"/>
<polygon fill="black" stroke="black" points="782,-129.5 792,-126 782,-122.5 782,-129.5"/>
</g>
<!-- CONFIG: ${ST_BOOT_COMMON_BOOT_MODE} -->
<g id="node4" class="node">
<title>CONFIG: ${ST_BOOT_COMMON_BOOT_MODE}</title>
<ellipse fill="none" stroke="black" cx="288" cy="-18" rx="288" ry="18"/>
<text text-anchor="middle" x="288" y="-14.3" font-family="Times,serif" font-size="14.00">CONFIG: ${ST_BOOT_COMMON_BOOT_MODE}</text>
</g>
<!-- CONFIG: ${ST_BOOT_COMMON_BOOT_MODE}&#45;&gt;/stboot&#45;installation/common/build_security_config.sh -->
<g id="edge3" class="edge">
<title>CONFIG: ${ST_BOOT_COMMON_BOOT_MODE}:e&#45;&gt;/stboot&#45;installation/common/build_security_config.sh:w</title>
<path fill="none" stroke="black" d="M576,-18C679.87,-18 684.47,-119.15 781.95,-125.67"/>
<polygon fill="black" stroke="black" points="781.89,-129.17 792,-126 782.12,-122.17 781.89,-129.17"/>
</g>
<!-- /stboot&#45;installation/common/build_initramfs.sh -->
<g id="node6" class="node">
<title>/stboot&#45;installation/common/build_initramfs.sh</title>
<polygon fill="indianred" stroke="black" points="2952,-360 2376,-360 2376,-324 2952,-324 2952,-360"/>
<text text-anchor="middle" x="2664" y="-338.3" font-family="Times,serif" font-size="14.00">/stboot&#45;installation/common/build_initramfs.sh</text>
</g>
<!-- /out/stboot&#45;installation/security_configuration.json&#45;&gt;/stboot&#45;installation/common/build_initramfs.sh -->
<g id="edge5" class="edge">
<title>/out/stboot&#45;installation/security_configuration.json:e&#45;&gt;/stboot&#45;installation/common/build_initramfs.sh:w</title>
<path fill="none" stroke="black" d="M2160,-126C2292.18,-126 2243.03,-330.76 2365.65,-341.56"/>
<polygon fill="black" stroke="black" points="2365.86,-345.07 2376,-342 2366.16,-338.08 2365.86,-345.07"/>
</g>
<!-- /out/stboot&#45;installation/initramfs&#45;linuxboot.cpio.gz -->
<g id="node10" class="node">
<title>/out/stboot&#45;installation/initramfs&#45;linuxboot.cpio.gz</title>
<ellipse fill="none" stroke="black" cx="3456" cy="-342" rx="288" ry="18"/>
<text text-anchor="middle" x="3456" y="-338.3" font-family="Times,serif" font-size="14.00">/out/stboot&#45;installation/initramfs&#45;linuxboot.cpio.gz</text>
</g>
<!-- /stboot&#45;installation/common/build_initramfs.sh&#45;&gt;/out/stboot&#45;installation/initramfs&#45;linuxboot.cpio.gz -->
<g id="edge9" class="edge">
<title>/stboot&#45;installation/common/build_initramfs.sh:e&#45;&gt;/out/stboot&#45;installation/initramfs&#45;linuxboot.cpio.gz:w</title>
<path fill="none" stroke="black" d="M2952,-342C3044.53,-342 3070.17,-342 3157.87,-342"/>
<polygon fill="black" stroke="black" points="3158,-345.5 3168,-342 3158,-338.5 3158,-345.5"/>
</g>
<!-- CONFIG: ${ST_BOOT_COMMON_LINUXBOOT_VARIANT} -->
<g id="node7" class="node">
<title>CONFIG: ${ST_BOOT_COMMON_LINUXBOOT_VARIANT}</title>
<ellipse fill="none" stroke="black" cx="1872" cy="-450" rx="288" ry="18"/>
<text text-anchor="middle" x="1872" y="-446.3" font-family="Times,serif" font-size="14.00">CONFIG: ${ST_BOOT_COMMON_LINUXBOOT_VARIANT}</text>
</g>
<!-- CONFIG: ${ST_BOOT_COMMON_LINUXBOOT_VARIANT}&#45;&gt;/stboot&#45;installation/common/build_initramfs.sh -->
<g id="edge6" class="edge">
<title>CONFIG: ${ST_BOOT_COMMON_LINUXBOOT_VARIANT}:e&#45;&gt;/stboot&#45;installation/common/build_initramfs.sh:w</title>
<path fill="none" stroke="black" d="M2160,-450C2263.87,-450 2268.47,-348.85 2365.95,-342.33"/>
<polygon fill="black" stroke="black" points="2366.12,-345.83 2376,-342 2365.89,-338.83 2366.12,-345.83"/>
</g>
<!-- &quot;KEYS&quot; -->
<g id="node8" class="node">
<title>&quot;KEYS&quot;</title>
<ellipse fill="none" stroke="black" cx="1872" cy="-342" rx="288" ry="18"/>
<text text-anchor="middle" x="1872" y="-338.3" font-family="Times,serif" font-size="14.00">&quot;KEYS&quot;</text>
</g>
<!-- &quot;KEYS&quot;&#45;&gt;/stboot&#45;installation/common/build_initramfs.sh -->
<g id="edge7" class="edge">
<title>&quot;KEYS&quot;:e&#45;&gt;/stboot&#45;installation/common/build_initramfs.sh:w</title>
<path fill="none" stroke="black" d="M2160,-342C2252.53,-342 2278.17,-342 2365.87,-342"/>
<polygon fill="black" stroke="black" points="2366,-345.5 2376,-342 2366,-338.5 2366,-345.5"/>
</g>
<!-- /stboot&#45;installation/initramfs&#45;includes/https_roots.pem -->
<g id="node9" class="node">
<title>/stboot&#45;installation/initramfs&#45;includes/https_roots.pem</title>
<ellipse fill="none" stroke="black" cx="1872" cy="-234" rx="288" ry="18"/>
<text text-anchor="middle" x="1872" y="-230.3" font-family="Times,serif" font-size="14.00">/stboot&#45;installation/initramfs&#45;includes/https_roots.pem</text>
</g>
<!-- /stboot&#45;installation/initramfs&#45;includes/https_roots.pem&#45;&gt;/stboot&#45;installation/common/build_initramfs.sh -->
<g id="edge8" class="edge">
<title>/stboot&#45;installation/initramfs&#45;includes/https_roots.pem:e&#45;&gt;/stboot&#45;installation/common/build_initramfs.sh:w</title>
<path fill="none" stroke="black" d="M2160,-234C2263.87,-234 2268.47,-335.15 2365.95,-341.67"/>
<polygon fill="black" stroke="black" points="2365.89,-345.17 2376,-342 2366.12,-338.17 2365.89,-345.17"/>
</g>
<!-- /stboot&#45;installation/common/build_kernel.sh -->
<g id="node15" class="node">
<title>/stboot&#45;installation/common/build_kernel.sh</title>
<polygon fill="indianred" stroke="black" points="4536,-468 3960,-468 3960,-432 4536,-432 4536,-468"/>
<text text-anchor="middle" x="4248" y="-446.3" font-family="Times,serif" font-size="14.00">/stboot&#45;installation/common/build_kernel.sh</text>
</g>
<!-- /out/stboot&#45;installation/initramfs&#45;linuxboot.cpio.gz&#45;&gt;/stboot&#45;installation/common/build_kernel.sh -->
<g id="edge13" class="edge">
<title>/out/stboot&#45;installation/initramfs&#45;linuxboot.cpio.gz:e&#45;&gt;/stboot&#45;installation/common/build_kernel.sh:w</title>
<path fill="none" stroke="black" d="M3744,-342C3847.87,-342 3852.47,-443.15 3949.95,-449.67"/>
<polygon fill="black" stroke="black" points="3949.89,-453.17 3960,-450 3950.12,-446.17 3949.89,-453.17"/>
</g>
<!-- CONFIG: ${ST_BOOT_MBR_KERNEL_CONFIG} -->
<g id="node11" class="node">
<title>CONFIG: ${ST_BOOT_MBR_KERNEL_CONFIG}</title>
<ellipse fill="none" stroke="black" cx="1872" cy="-666" rx="288" ry="18"/>
<text text-anchor="middle" x="1872" y="-662.3" font-family="Times,serif" font-size="14.00">CONFIG: ${ST_BOOT_MBR_KERNEL_CONFIG}</text>
</g>
<!-- /stboot&#45;installation/mbr&#45;bootloader/build_mbr_kernel_config.sh -->
<g id="node13" class="node">
<title>/stboot&#45;installation/mbr&#45;bootloader/build_mbr_kernel_config.sh</title>
<polygon fill="lightgrey" stroke="black" points="2952,-576 2376,-576 2376,-540 2952,-540 2952,-576"/>
<text text-anchor="middle" x="2664" y="-554.3" font-family="Times,serif" font-size="14.00">/stboot&#45;installation/mbr&#45;bootloader/build_mbr_kernel_config.sh</text>
</g>
<!-- CONFIG: ${ST_BOOT_MBR_KERNEL_CONFIG}&#45;&gt;/stboot&#45;installation/mbr&#45;bootloader/build_mbr_kernel_config.sh -->
<g id="edge10" class="edge">
<title>CONFIG: ${ST_BOOT_MBR_KERNEL_CONFIG}:e&#45;&gt;/stboot&#45;installation/mbr&#45;bootloader/build_mbr_kernel_config.sh:w</title>
<path fill="none" stroke="black" d="M2160,-666C2263.87,-666 2268.47,-564.85 2365.95,-558.33"/>
<polygon fill="black" stroke="black" points="2366.12,-561.83 2376,-558 2365.89,-554.83 2366.12,-561.83"/>
</g>
<!-- CONFIG: ${ST_BOOT_COMMON_LINUXBOOT_CMDLINE} -->
<g id="node12" class="node">
<title>CONFIG: ${ST_BOOT_COMMON_LINUXBOOT_CMDLINE}</title>
<ellipse fill="none" stroke="black" cx="1872" cy="-558" rx="288" ry="18"/>
<text text-anchor="middle" x="1872" y="-554.3" font-family="Times,serif" font-size="14.00">CONFIG: ${ST_BOOT_COMMON_LINUXBOOT_CMDLINE}</text>
</g>
<!-- CONFIG: ${ST_BOOT_COMMON_LINUXBOOT_CMDLINE}&#45;&gt;/stboot&#45;installation/mbr&#45;bootloader/build_mbr_kernel_config.sh -->
<g id="edge11" class="edge">
<title>CONFIG: ${ST_BOOT_COMMON_LINUXBOOT_CMDLINE}:e&#45;&gt;/stboot&#45;installation/mbr&#45;bootloader/build_mbr_kernel_config.sh:w</title>
<path fill="none" stroke="black" d="M2160,-558C2252.53,-558 2278.17,-558 2365.87,-558"/>
<polygon fill="black" stroke="black" points="2366,-561.5 2376,-558 2366,-554.5 2366,-561.5"/>
</g>
<!-- /out/stboot&#45;installation/st_boot_mbr_kernel.config -->
<g id="node14" class="node">
<title>/out/stboot&#45;installation/st_boot_mbr_kernel.config</title>
<ellipse fill="none" stroke="black" cx="3456" cy="-558" rx="288" ry="18"/>
<text text-anchor="middle" x="3456" y="-554.3" font-family="Times,serif" font-size="14.00">/out/stboot&#45;installation/st_boot_mbr_kernel.config</text>
</g>
<!-- /stboot&#45;installation/mbr&#45;bootloader/build_mbr_kernel_config.sh&#45;&gt;/out/stboot&#45;installation/st_boot_mbr_kernel.config -->
<g id="edge12" class="edge">
<title>/stboot&#45;installation/mbr&#45;bootloader/build_mbr_kernel_config.sh:e&#45;&gt;/out/stboot&#45;installation/st_boot_mbr_kernel.config:w</title>
<path fill="none" stroke="black" d="M2952,-558C3044.53,-558 3070.17,-558 3157.87,-558"/>
<polygon fill="black" stroke="black" points="3158,-561.5 3168,-558 3158,-554.5 3158,-561.5"/>
</g>
<!-- /out/stboot&#45;installation/st_boot_mbr_kernel.config&#45;&gt;/stboot&#45;installation/common/build_kernel.sh -->
<g id="edge14" class="edge">
<title>/out/stboot&#45;installation/st_boot_mbr_kernel.config:e&#45;&gt;/stboot&#45;installation/common/build_kernel.sh:w</title>
<path fill="none" stroke="black" d="M3744,-558C3847.87,-558 3852.47,-456.85 3949.95,-450.33"/>
<polygon fill="black" stroke="black" points="3950.12,-453.83 3960,-450 3949.89,-446.83 3950.12,-453.83"/>
</g>
<!-- /out/stboot&#45;installation/mbr&#45;bootloader/linuxboot.vmlinuz -->
<g id="node17" class="node">
<title>/out/stboot&#45;installation/mbr&#45;bootloader/linuxboot.vmlinuz</title>
<ellipse fill="none" stroke="black" cx="5040" cy="-450" rx="288" ry="18"/>
<text text-anchor="middle" x="5040" y="-446.3" font-family="Times,serif" font-size="14.00">/out/stboot&#45;installation/mbr&#45;bootloader/linuxboot.vmlinuz</text>
</g>
<!-- /stboot&#45;installation/common/build_kernel.sh&#45;&gt;/out/stboot&#45;installation/mbr&#45;bootloader/linuxboot.vmlinuz -->
<g id="edge16" class="edge">
<title>/stboot&#45;installation/common/build_kernel.sh:e&#45;&gt;/out/stboot&#45;installation/mbr&#45;bootloader/linuxboot.vmlinuz:w</title>
<path fill="none" stroke="black" d="M4536,-450C4628.53,-450 4654.17,-450 4741.87,-450"/>
<polygon fill="black" stroke="black" points="4742,-453.5 4752,-450 4742,-446.5 4742,-453.5"/>
</g>
<!-- CONFIG: ${ST_BOOT_MBR_KERNEL_VERSION} -->
<g id="node16" class="node">
<title>CONFIG: ${ST_BOOT_MBR_KERNEL_VERSION}</title>
<ellipse fill="none" stroke="black" cx="3456" cy="-450" rx="288" ry="18"/>
<text text-anchor="middle" x="3456" y="-446.3" font-family="Times,serif" font-size="14.00">CONFIG: ${ST_BOOT_MBR_KERNEL_VERSION}</text>
</g>
<!-- CONFIG: ${ST_BOOT_MBR_KERNEL_VERSION}&#45;&gt;/stboot&#45;installation/common/build_kernel.sh -->
<g id="edge15" class="edge">
<title>CONFIG: ${ST_BOOT_MBR_KERNEL_VERSION}:e&#45;&gt;/stboot&#45;installation/common/build_kernel.sh:w</title>
<path fill="none" stroke="black" d="M3744,-450C3836.53,-450 3862.17,-450 3949.87,-450"/>
<polygon fill="black" stroke="black" points="3950,-453.5 3960,-450 3950,-446.5 3950,-453.5"/>
</g>
<!-- /stboot&#45;installation/mbr&#45;bootloader/build_boot_filesystem.sh -->
<g id="node25" class="node">
<title>/stboot&#45;installation/mbr&#45;bootloader/build_boot_filesystem.sh</title>
<polygon fill="lightgrey" stroke="black" points="6120,-684 5544,-684 5544,-648 6120,-648 6120,-684"/>
<text text-anchor="middle" x="5832" y="-662.3" font-family="Times,serif" font-size="14.00">/stboot&#45;installation/mbr&#45;bootloader/build_boot_filesystem.sh</text>
</g>
<!-- /out/stboot&#45;installation/mbr&#45;bootloader/linuxboot.vmlinuz&#45;&gt;/stboot&#45;installation/mbr&#45;bootloader/build_boot_filesystem.sh -->
<g id="edge21" class="edge">
<title>/out/stboot&#45;installation/mbr&#45;bootloader/linuxboot.vmlinuz:e&#45;&gt;/stboot&#45;installation/mbr&#45;bootloader/build_boot_filesystem.sh:w</title>
<path fill="none" stroke="black" d="M5328,-450C5460.18,-450 5411.03,-654.76 5533.65,-665.56"/>
<polygon fill="black" stroke="black" points="5533.86,-669.07 5544,-666 5534.16,-662.08 5533.86,-669.07"/>
</g>
<!-- /stboot&#45;installation/common/build_syslinux_config.sh -->
<g id="node18" class="node">
<title>/stboot&#45;installation/common/build_syslinux_config.sh</title>
<polygon fill="indianred" stroke="black" points="4536,-792 3960,-792 3960,-756 4536,-756 4536,-792"/>
<text text-anchor="middle" x="4248" y="-770.3" font-family="Times,serif" font-size="14.00">/stboot&#45;installation/common/build_syslinux_config.sh</text>
</g>
<!-- /out/stboot&#45;installation/mbr&#45;bootloader/syslinux.cfg -->
<g id="node19" class="node">
<title>/out/stboot&#45;installation/mbr&#45;bootloader/syslinux.cfg</title>
<ellipse fill="none" stroke="black" cx="5040" cy="-774" rx="288" ry="18"/>
<text text-anchor="middle" x="5040" y="-770.3" font-family="Times,serif" font-size="14.00">/out/stboot&#45;installation/mbr&#45;bootloader/syslinux.cfg</text>
</g>
<!-- /stboot&#45;installation/common/build_syslinux_config.sh&#45;&gt;/out/stboot&#45;installation/mbr&#45;bootloader/syslinux.cfg -->
<g id="edge17" class="edge">
<title>/stboot&#45;installation/common/build_syslinux_config.sh:e&#45;&gt;/out/stboot&#45;installation/mbr&#45;bootloader/syslinux.cfg:w</title>
<path fill="none" stroke="black" d="M4536,-774C4628.53,-774 4654.17,-774 4741.87,-774"/>
<polygon fill="black" stroke="black" points="4742,-777.5 4752,-774 4742,-770.5 4742,-777.5"/>
</g>
<!-- /out/stboot&#45;installation/mbr&#45;bootloader/syslinux.cfg&#45;&gt;/stboot&#45;installation/mbr&#45;bootloader/build_boot_filesystem.sh -->
<g id="edge22" class="edge">
<title>/out/stboot&#45;installation/mbr&#45;bootloader/syslinux.cfg:e&#45;&gt;/stboot&#45;installation/mbr&#45;bootloader/build_boot_filesystem.sh:w</title>
<path fill="none" stroke="black" d="M5328,-774C5431.87,-774 5436.47,-672.85 5533.95,-666.33"/>
<polygon fill="black" stroke="black" points="5534.12,-669.83 5544,-666 5533.89,-662.83 5534.12,-669.83"/>
</g>
<!-- /stboot&#45;installation/common/build_host_config.sh -->
<g id="node20" class="node">
<title>/stboot&#45;installation/common/build_host_config.sh</title>
<polygon fill="indianred" stroke="black" points="4536,-684 3960,-684 3960,-648 4536,-648 4536,-684"/>
<text text-anchor="middle" x="4248" y="-662.3" font-family="Times,serif" font-size="14.00">/stboot&#45;installation/common/build_host_config.sh</text>
</g>
<!-- /out/stboot&#45;installation/host_configuration.json -->
<g id="node23" class="node">
<title>/out/stboot&#45;installation/host_configuration.json</title>
<ellipse fill="none" stroke="black" cx="5040" cy="-666" rx="288" ry="18"/>
<text text-anchor="middle" x="5040" y="-662.3" font-family="Times,serif" font-size="14.00">/out/stboot&#45;installation/host_configuration.json</text>
</g>
<!-- /stboot&#45;installation/common/build_host_config.sh&#45;&gt;/out/stboot&#45;installation/host_configuration.json -->
<g id="edge20" class="edge">
<title>/stboot&#45;installation/common/build_host_config.sh:e&#45;&gt;/out/stboot&#45;installation/host_configuration.json:w</title>
<path fill="none" stroke="black" d="M4536,-666C4628.53,-666 4654.17,-666 4741.87,-666"/>
<polygon fill="black" stroke="black" points="4742,-669.5 4752,-666 4742,-662.5 4742,-669.5"/>
</g>
<!-- CONFIG: ${ST_BOOT_COMMON_NETWORK_HOST_*} -->
<g id="node21" class="node">
<title>CONFIG: ${ST_BOOT_COMMON_NETWORK_HOST_*}</title>
<ellipse fill="none" stroke="black" cx="3456" cy="-774" rx="288" ry="18"/>
<text text-anchor="middle" x="3456" y="-770.3" font-family="Times,serif" font-size="14.00">CONFIG: ${ST_BOOT_COMMON_NETWORK_HOST_*}</text>
</g>
<!-- CONFIG: ${ST_BOOT_COMMON_NETWORK_HOST_*}&#45;&gt;/stboot&#45;installation/common/build_host_config.sh -->
<g id="edge18" class="edge">
<title>CONFIG: ${ST_BOOT_COMMON_NETWORK_HOST_*}:e&#45;&gt;/stboot&#45;installation/common/build_host_config.sh:w</title>
<path fill="none" stroke="black" d="M3744,-774C3847.87,-774 3852.47,-672.85 3949.95,-666.33"/>
<polygon fill="black" stroke="black" points="3950.12,-669.83 3960,-666 3949.89,-662.83 3950.12,-669.83"/>
</g>
<!-- CONFIG: ${ST_BOOT_COMMON_PROVISIONING_SERVER_URL} -->
<g id="node22" class="node">
<title>CONFIG: ${ST_BOOT_COMMON_PROVISIONING_SERVER_URL}</title>
<ellipse fill="none" stroke="black" cx="3456" cy="-666" rx="288" ry="18"/>
<text text-anchor="middle" x="3456" y="-662.3" font-family="Times,serif" font-size="14.00">CONFIG: ${ST_BOOT_COMMON_PROVISIONING_SERVER_URL}</text>
</g>
<!-- CONFIG: ${ST_BOOT_COMMON_PROVISIONING_SERVER_URL}&#45;&gt;/stboot&#45;installation/common/build_host_config.sh -->
<g id="edge19" class="edge">
<title>CONFIG: ${ST_BOOT_COMMON_PROVISIONING_SERVER_URL}:e&#45;&gt;/stboot&#45;installation/common/build_host_config.sh:w</title>
<path fill="none" stroke="black" d="M3744,-666C3836.53,-666 3862.17,-666 3949.87,-666"/>
<polygon fill="black" stroke="black" points="3950,-669.5 3960,-666 3950,-662.5 3950,-669.5"/>
</g>
<!-- /out/stboot&#45;installation/host_configuration.json&#45;&gt;/stboot&#45;installation/mbr&#45;bootloader/build_boot_filesystem.sh -->
<g id="edge23" class="edge">
<title>/out/stboot&#45;installation/host_configuration.json:e&#45;&gt;/stboot&#45;installation/mbr&#45;bootloader/build_boot_filesystem.sh:w</title>
<path fill="none" stroke="black" d="M5328,-666C5420.53,-666 5446.17,-666 5533.87,-666"/>
<polygon fill="black" stroke="black" points="5534,-669.5 5544,-666 5534,-662.5 5534,-669.5"/>
</g>
<!-- /cache/syslinux/syslinux&#45;6.03/bios/mtools/syslinux -->
<g id="node24" class="node">
<title>/cache/syslinux/syslinux&#45;6.03/bios/mtools/syslinux</title>
<ellipse fill="none" stroke="black" cx="5040" cy="-558" rx="288" ry="18"/>
<text text-anchor="middle" x="5040" y="-554.3" font-family="Times,serif" font-size="14.00">/cache/syslinux/syslinux&#45;6.03/bios/mtools/syslinux</text>
</g>
<!-- /cache/syslinux/syslinux&#45;6.03/bios/mtools/syslinux&#45;&gt;/stboot&#45;installation/mbr&#45;bootloader/build_boot_filesystem.sh -->
<g id="edge24" class="edge">
<title>/cache/syslinux/syslinux&#45;6.03/bios/mtools/syslinux:e&#45;&gt;/stboot&#45;installation/mbr&#45;bootloader/build_boot_filesystem.sh:w</title>
<path fill="none" stroke="black" d="M5328,-558C5431.87,-558 5436.47,-659.15 5533.95,-665.67"/>
<polygon fill="black" stroke="black" points="5533.89,-669.17 5544,-666 5534.12,-662.17 5533.89,-669.17"/>
</g>
<!-- /out/stboot&#45;installation/mbr&#45;bootloader/boot_partition.vfat -->
<g id="node26" class="node">
<title>/out/stboot&#45;installation/mbr&#45;bootloader/boot_partition.vfat</title>
<ellipse fill="none" stroke="black" cx="6624" cy="-693" rx="288" ry="18"/>
<text text-anchor="middle" x="6624" y="-689.3" font-family="Times,serif" font-size="14.00">/out/stboot&#45;installation/mbr&#45;bootloader/boot_partition.vfat</text>
</g>
<!-- /stboot&#45;installation/mbr&#45;bootloader/build_boot_filesystem.sh&#45;&gt;/out/stboot&#45;installation/mbr&#45;bootloader/boot_partition.vfat -->
<g id="edge25" class="edge">
<title>/stboot&#45;installation/mbr&#45;bootloader/build_boot_filesystem.sh:e&#45;&gt;/out/stboot&#45;installation/mbr&#45;bootloader/boot_partition.vfat:w</title>
<path fill="none" stroke="black" d="M6120,-666C6213.25,-666 6237.53,-691.08 6325.8,-692.9"/>
<polygon fill="black" stroke="black" points="6325.97,-696.4 6336,-693 6326.04,-689.4 6325.97,-696.4"/>
</g>
<!-- /stboot&#45;installation/mbr&#45;bootloader/build_image.sh -->
<g id="node31" class="node">
<title>/stboot&#45;installation/mbr&#45;bootloader/build_image.sh</title>
<polygon fill="lightgrey" stroke="black" points="7704,-765 7128,-765 7128,-729 7704,-729 7704,-765"/>
<text text-anchor="middle" x="7416" y="-743.3" font-family="Times,serif" font-size="14.00">/stboot&#45;installation/mbr&#45;bootloader/build_image.sh</text>
</g>
<!-- /out/stboot&#45;installation/mbr&#45;bootloader/boot_partition.vfat&#45;&gt;/stboot&#45;installation/mbr&#45;bootloader/build_image.sh -->
<g id="edge29" class="edge">
<title>/out/stboot&#45;installation/mbr&#45;bootloader/boot_partition.vfat:e&#45;&gt;/stboot&#45;installation/mbr&#45;bootloader/build_image.sh:w</title>
<path fill="none" stroke="black" d="M6912,-693C7007.48,-693 7027.67,-743.27 7117.86,-746.8"/>
<polygon fill="black" stroke="black" points="7117.93,-750.31 7128,-747 7118.07,-743.31 7117.93,-750.31"/>
</g>
<!-- /stboot&#45;installation/common/build_data_filesystem.sh -->
<g id="node27" class="node">
<title>/stboot&#45;installation/common/build_data_filesystem.sh</title>
<polygon fill="indianred" stroke="black" points="6120,-900 5544,-900 5544,-864 6120,-864 6120,-900"/>
<text text-anchor="middle" x="5832" y="-878.3" font-family="Times,serif" font-size="14.00">/stboot&#45;installation/common/build_data_filesystem.sh</text>
</g>
<!-- /out/stboot&#45;installation/data_partition.ext4 -->
<g id="node30" class="node">
<title>/out/stboot&#45;installation/data_partition.ext4</title>
<ellipse fill="none" stroke="black" cx="6624" cy="-855" rx="288" ry="18"/>
<text text-anchor="middle" x="6624" y="-851.3" font-family="Times,serif" font-size="14.00">/out/stboot&#45;installation/data_partition.ext4</text>
</g>
<!-- /stboot&#45;installation/common/build_data_filesystem.sh&#45;&gt;/out/stboot&#45;installation/data_partition.ext4 -->
<g id="edge28" class="edge">
<title>/stboot&#45;installation/common/build_data_filesystem.sh:e&#45;&gt;/out/stboot&#45;installation/data_partition.ext4:w</title>
<path fill="none" stroke="black" d="M6120,-882C6213.25,-882 6237.53,-856.92 6325.8,-855.1"/>
<polygon fill="black" stroke="black" points="6326.04,-858.6 6336,-855 6325.97,-851.6 6326.04,-858.6"/>
</g>
<!-- /out/os&#45;packages/\* -->
<g id="node28" class="node">
<title>/out/os&#45;packages/\*</title>
<ellipse fill="none" stroke="black" cx="5040" cy="-990" rx="288" ry="18"/>
<text text-anchor="middle" x="5040" y="-986.3" font-family="Times,serif" font-size="14.00">/out/os&#45;packages/*</text>
</g>
<!-- /out/os&#45;packages/\*&#45;&gt;/stboot&#45;installation/common/build_data_filesystem.sh -->
<g id="edge26" class="edge">
<title>/out/os&#45;packages/\*:e&#45;&gt;/stboot&#45;installation/common/build_data_filesystem.sh:w</title>
<path fill="none" stroke="black" d="M5328,-990C5431.87,-990 5436.47,-888.85 5533.95,-882.33"/>
<polygon fill="black" stroke="black" points="5534.12,-885.83 5544,-882 5533.89,-878.83 5534.12,-885.83"/>
</g>
<!-- CONFIG: ${ST_BOOT_COMMON_DATA_PARTITION_SIZE} -->
<g id="node29" class="node">
<title>CONFIG: ${ST_BOOT_COMMON_DATA_PARTITION_SIZE}</title>
<ellipse fill="none" stroke="black" cx="5040" cy="-882" rx="288" ry="18"/>
<text text-anchor="middle" x="5040" y="-878.3" font-family="Times,serif" font-size="14.00">CONFIG: ${ST_BOOT_COMMON_DATA_PARTITION_SIZE}</text>
</g>
<!-- CONFIG: ${ST_BOOT_COMMON_DATA_PARTITION_SIZE}&#45;&gt;/stboot&#45;installation/common/build_data_filesystem.sh -->
<g id="edge27" class="edge">
<title>CONFIG: ${ST_BOOT_COMMON_DATA_PARTITION_SIZE}:e&#45;&gt;/stboot&#45;installation/common/build_data_filesystem.sh:w</title>
<path fill="none" stroke="black" d="M5328,-882C5420.53,-882 5446.17,-882 5533.87,-882"/>
<polygon fill="black" stroke="black" points="5534,-885.5 5544,-882 5534,-878.5 5534,-885.5"/>
</g>
<!-- /out/stboot&#45;installation/data_partition.ext4&#45;&gt;/stboot&#45;installation/mbr&#45;bootloader/build_image.sh -->
<g id="edge30" class="edge">
<title>/out/stboot&#45;installation/data_partition.ext4:e&#45;&gt;/stboot&#45;installation/mbr&#45;bootloader/build_image.sh:w</title>
<path fill="none" stroke="black" d="M6912,-855C7015.87,-855 7020.47,-753.85 7117.95,-747.33"/>
<polygon fill="black" stroke="black" points="7118.12,-750.83 7128,-747 7117.89,-743.83 7118.12,-750.83"/>
</g>
<!-- /out/stboot&#45;installation/mbr&#45;bootloader/stboot_mbr_installation.img -->
<g id="node32" class="node">
<title>/out/stboot&#45;installation/mbr&#45;bootloader/stboot_mbr_installation.img</title>
<ellipse fill="none" stroke="black" cx="8208" cy="-747" rx="288" ry="18"/>
<text text-anchor="middle" x="8208" y="-743.3" font-family="Times,serif" font-size="14.00">/out/stboot&#45;installation/mbr&#45;bootloader/stboot_mbr_installation.img</text>
</g>
<!-- /stboot&#45;installation/mbr&#45;bootloader/build_image.sh&#45;&gt;/out/stboot&#45;installation/mbr&#45;bootloader/stboot_mbr_installation.img -->
<g id="edge31" class="edge">
<title>/stboot&#45;installation/mbr&#45;bootloader/build_image.sh:e&#45;&gt;/out/stboot&#45;installation/mbr&#45;bootloader/stboot_mbr_installation.img:w</title>
<path fill="none" stroke="black" d="M7704,-747C7796.53,-747 7822.17,-747 7909.87,-747"/>
<polygon fill="black" stroke="black" points="7910,-750.5 7920,-747 7910,-743.5 7910,-750.5"/>
</g>
</g>
</svg>
